<svg width="160" height="160" viewBox="0 0 160 160" fill="none" xmlns="http://www.w3.org/2000/svg">
<path d="M69.6736 98.08C69.5831 97.6769 69.5858 97.2586 69.6816 96.8568C70.4272 93.5568 70.3144 88.6872 71.0592 84.728C71.804 80.7688 74.2592 81.2144 76.9736 80.2656C78.7064 79.6576 80.328 78.7232 82.1736 77.8656C83.273 77.3405 84.411 76.9003 85.5776 76.5488C89.0336 75.5312 97.7088 79.1888 101.91 79.8616C102.903 80.0192 103.882 80.2576 104.836 80.5736L104.855 80.516C104.855 80.516 124.017 67.3816 129.026 63.7848C134.036 60.188 144.32 52.8848 144.32 52.8848L156.033 79.8608C156.033 79.8608 133.036 95.0608 129.633 98.0576C126.23 101.054 118.745 104.863 118.745 104.863L118.684 104.849C118.227 106.942 116.707 109.329 112.517 111.695L112.264 111.783C111.571 110.188 110.694 108.678 109.651 107.286C105.472 99.5976 88.4272 88.2056 86.9536 88.4504C85.48 88.6952 81.4104 89.2312 81.4104 89.2312C81.1112 90.1304 79.86 90.6336 79.86 90.6336H79.7528C79.7732 93.3533 78.8389 95.9941 77.1128 98.096C74.3864 101.536 70.2344 100.56 69.6736 98.08Z" fill="#F9D99B"/>
<path d="M117.082 30.4097C117.35 31.6358 117.454 32.8922 117.39 34.1457C117.378 34.3653 117.319 34.5798 117.218 34.7751C117.116 34.9703 116.975 35.1419 116.802 35.2785C116.63 35.4155 116.432 35.5147 116.219 35.5697C116.006 35.6247 115.784 35.6343 115.567 35.5977L109.873 34.6577C109.524 34.6023 109.204 34.4295 108.966 34.1676C108.729 33.9057 108.587 33.5706 108.566 33.2177C108.544 32.2805 108.206 31.3785 107.606 30.6577C107.362 30.373 107.087 30.1155 106.787 29.8897L105.149 39.8193L107.489 41.2353C110.708 43.1329 112.777 45.3345 113.694 47.8401C114.612 50.3429 114.856 53.0431 114.4 55.6697C114.111 57.5191 113.455 59.2919 112.47 60.8833C111.53 62.3993 110.318 63.7284 108.895 64.8033C107.455 65.8814 105.809 66.6532 104.059 67.0713C102.923 67.3497 101.756 67.4785 100.586 67.4537L99.8023 72.2081C99.759 72.4716 99.6642 72.724 99.5232 72.9508C99.3822 73.1776 99.1979 73.3744 98.9807 73.5298C98.7636 73.6853 98.5179 73.7964 98.2578 73.8568C97.9976 73.9172 97.7281 73.9256 97.4647 73.8817C97.2013 73.8384 96.9491 73.7435 96.7224 73.6025C96.4958 73.4615 96.2992 73.2772 96.1439 73.0601C95.831 72.6214 95.7041 72.0767 95.7911 71.5449L96.5663 66.8489C93.7692 66.1056 91.2963 64.4582 89.5327 62.1633C88.6741 61.0791 88.0015 59.8598 87.5423 58.5553C87.3989 58.1611 87.2732 57.7607 87.1655 57.3553C86.8787 56.2795 86.7253 55.1725 86.7087 54.0593C86.7008 53.6976 86.7725 53.3386 86.9188 53.0077C87.0652 52.6768 87.2825 52.3822 87.5555 52.1448C87.8284 51.9074 88.1503 51.7329 88.4982 51.6338C88.8461 51.5346 89.2116 51.5133 89.5687 51.5713L91.9743 51.9713L93.6815 52.2513C94.1871 52.3367 94.6534 52.5775 95.0157 52.9402C95.3781 53.303 95.6183 53.7696 95.7031 54.2753C95.8223 54.9761 96.0255 55.6593 96.3079 56.3105C96.6438 57.08 97.2545 57.6967 98.0207 58.0401L99.8687 46.8401L97.8263 45.6801C95.2931 44.299 93.202 42.2298 91.7943 39.7113C90.4697 37.1807 90.0478 34.274 90.5983 31.4713C90.8875 29.6181 91.5596 27.8455 92.5719 26.2665C93.5359 24.7627 94.7929 23.4684 96.2679 22.4609C97.6766 21.4528 99.281 20.7513 100.978 20.4017C102.062 20.1753 103.17 20.0784 104.278 20.1129L104.967 15.9313C105.006 15.6634 105.097 15.4059 105.237 15.1739C105.376 14.9419 105.56 14.74 105.778 14.58C105.997 14.4201 106.245 14.3054 106.508 14.2426C106.771 14.1797 107.044 14.1701 107.311 14.2142C107.578 14.2583 107.834 14.3552 108.063 14.4993C108.292 14.6434 108.49 14.8318 108.645 15.0534C108.801 15.275 108.91 15.5254 108.967 15.7899C109.025 16.0544 109.029 16.3276 108.979 16.5937L108.292 20.7649C109.392 21.0947 110.444 21.5682 111.421 22.1729C112.872 23.0634 114.117 24.2517 115.075 25.6593C116.042 27.0999 116.723 28.7125 117.082 30.4097ZM105.68 54.4161C105.903 53.2565 105.742 52.0558 105.221 50.9961C104.821 50.2688 104.27 49.6351 103.606 49.1369L102.073 58.4249C102.57 58.2852 103.046 58.082 103.491 57.8201C104.093 57.4596 104.604 56.9648 104.984 56.3743C105.364 55.7839 105.602 55.1137 105.68 54.4161ZM101.404 37.5201L102.82 28.9441C102.15 29.0597 101.523 29.3553 101.008 29.7993C100.09 30.5643 99.4833 31.6378 99.3007 32.8185C99.1623 33.6877 99.2386 34.5775 99.5231 35.4105C99.9154 36.2921 100.573 37.0296 101.404 37.5201Z" fill="#22AD01"/>
<path d="M69.6736 98.08C70.2336 100.56 74.3864 101.534 77.1088 98.0968C78.8349 95.9949 79.7691 93.3541 79.7487 90.6344H79.8559C79.8559 90.6344 81.1072 90.1312 81.4064 89.232C81.4064 89.232 85.4727 88.696 86.9495 88.4512C88.4263 88.2064 105.468 99.5984 109.647 107.286C110.69 108.679 111.566 110.188 112.26 111.784C112.714 112.956 112.886 114.072 112.34 114.718C110.456 116.958 108.152 116.299 106.535 114.438C106.455 114.347 106.375 114.25 106.295 114.152C104.67 112.076 100.498 107.008 100.498 107.008L97.0176 104.848C97.8295 105.608 98.5919 106.419 99.2999 107.276C100.232 108.546 103.898 112.289 105.544 114.854C105.967 115.409 106.245 116.061 106.353 116.751C106.319 117.256 106.165 117.745 105.903 118.178C105.642 118.611 105.282 118.975 104.851 119.241C104.421 119.506 103.934 119.666 103.43 119.706C102.926 119.746 102.419 119.665 101.953 119.471C101.895 119.447 101.839 119.418 101.787 119.383C100.394 118.52 93.5335 112.366 92.4687 111.363C92.2561 110.968 91.9632 110.621 91.6087 110.346C91.3946 110.173 91.1663 110.018 90.9263 109.884L90.9159 109.875C89.1119 108.85 87.1376 109.235 85.4328 110.568C83.552 112.045 84.3768 111.173 83.5632 112.02C83.4935 111.354 83.2087 110.728 82.752 110.238C81.0664 108.346 78.7816 108.253 76.6312 109.41C74.9714 110.364 73.3701 111.417 71.8359 112.562L65.5776 113.161L65.5231 113.15C65.6763 112.037 65.4349 110.905 64.8408 109.95C63.4808 107.899 61.44 108.11 60.3648 108.174C60.1888 108.186 60.0144 108.218 59.8448 108.268L59.8312 108.174C58.998 107.764 58.1908 107.303 57.4143 106.794C56.402 106.156 55.4 105.503 54.4088 104.834C53.8493 104.458 53.2922 104.078 52.7375 103.695C52.8031 95.7616 53.3808 87.8416 54.4664 79.9824L55.8776 80.5296C58.1648 81.4176 62.4872 83.0896 63.04 83.2848C63.3045 83.424 63.599 83.4968 63.8979 83.4968C64.1969 83.4968 64.4914 83.424 64.7559 83.2848C65.5392 82.988 74.7503 78.1376 76.6119 77.6952C78.4735 77.2528 82.1687 77.8624 82.1687 77.8624C80.3207 78.7232 78.6991 79.6576 76.9687 80.2624C74.2575 81.2112 71.7968 80.7624 71.0543 84.7248C70.312 88.6872 70.4223 93.5536 69.6768 96.8536C69.5821 97.2568 69.581 97.6763 69.6736 98.08Z" fill="#F9D99B"/>
<path d="M106.304 114.151C106.384 114.25 106.464 114.346 106.544 114.437C106.544 114.437 105.576 114.885 105.557 114.855C103.91 112.29 100.245 108.547 99.3128 107.277C98.6045 106.42 97.8422 105.609 97.0304 104.849L100.511 107.009C100.511 107.009 104.678 112.075 106.304 114.151Z" fill="#F9D99B"/>
<path d="M101.797 119.383L101.607 119.661C101.536 120.034 101.378 120.385 101.147 120.687C100.916 120.989 100.618 121.233 100.277 121.399C99.7914 121.704 99.248 121.905 98.6809 121.99C98.1138 122.074 97.5354 122.039 96.9823 121.888C96.4863 121.648 96.0079 121.373 95.5503 121.066L94.8183 120.986C95.188 120.645 95.5149 120.259 95.7919 119.839C96.8319 118.086 96.7959 116.999 95.6487 116.086C95.2178 115.678 94.6872 115.391 94.1102 115.252C93.5331 115.114 92.9299 115.13 92.3607 115.298L92.2391 115.223C92.3007 115.121 92.3543 115.014 92.3991 114.903C92.6728 114.356 92.8218 113.756 92.8357 113.144C92.8495 112.533 92.7277 111.926 92.4791 111.367C93.5431 112.366 100.4 118.52 101.797 119.383Z" fill="#F9D99B"/>
<path d="M96.9823 121.888C96.0085 123.094 94.6772 123.961 93.1799 124.363C92.8645 124.476 92.5285 124.519 92.1948 124.49C91.8611 124.461 91.5378 124.359 91.2471 124.193L90.8727 124.187C92.2553 123.206 93.5732 122.138 94.8183 120.987L95.5503 121.067C96.0079 121.374 96.4863 121.648 96.9823 121.888Z" fill="#F9D99B"/>
<path d="M95.6487 116.08C96.7959 116.993 96.8287 118.08 95.7919 119.833C95.5149 120.253 95.188 120.638 94.8183 120.98C93.5733 122.13 92.2554 123.199 90.8727 124.18C90.4135 124.513 90.1199 124.716 90.1199 124.716C85.5935 127.375 83.5863 127.966 81.9671 127.204C81.4655 127.003 81.0158 126.692 80.6516 126.293C80.2874 125.894 80.0181 125.418 79.8639 124.9L79.7839 124.718C81.601 123.922 83.3614 123.003 85.0527 121.966C85.0527 121.966 90.9727 117.361 92.2367 115.214L92.3583 115.288C92.9281 115.12 93.532 115.104 94.1096 115.243C94.6871 115.382 95.2179 115.671 95.6487 116.08Z" fill="#F9D99B"/>
<path d="M92.48 111.36C92.7287 111.919 92.8504 112.526 92.8366 113.137C92.8228 113.748 92.6737 114.349 92.4 114.896C92.3551 115.007 92.3016 115.114 92.24 115.216C90.9752 117.363 85.056 121.969 85.056 121.969C83.3647 123.005 81.6043 123.925 79.7872 124.721C76.0272 126.286 75.152 125.361 73.8016 124.726C72.5149 124.047 71.5486 122.887 71.1128 121.498V121.46C72.2309 121.376 73.3223 121.077 74.3272 120.58C74.3272 120.58 81.6632 116.66 82.7656 114.853C83.3399 114.022 83.625 113.024 83.5768 112.015C84.3904 111.168 83.5656 112.04 85.4464 110.563C87.1512 109.23 89.1264 108.845 90.9296 109.87L90.94 109.879C91.18 110.014 91.408 110.168 91.6224 110.341C91.976 110.617 92.2688 110.964 92.48 111.36Z" fill="#F9D99B"/>
<path d="M71.84 112.56C73.3761 111.415 74.979 110.363 76.64 109.409C78.7904 108.251 81.0752 108.345 82.7608 110.237C83.2175 110.727 83.5023 111.352 83.572 112.018C83.6201 113.028 83.335 114.025 82.7608 114.856C81.6584 116.662 74.3224 120.583 74.3224 120.583C73.3175 121.081 72.2261 121.379 71.108 121.463C68.9822 121.534 66.8603 121.236 64.836 120.583C62.6288 120.011 61.5752 115.882 61.5752 115.882C62.4203 115.744 63.2433 115.494 64.0224 115.139C64.4207 114.961 64.7675 114.685 65.031 114.337C65.2944 113.989 65.4659 113.58 65.5296 113.149L65.584 113.159L71.84 112.56Z" fill="#F9D99B"/>
<path d="M81.1535 12.1904L81.6727 14.704L50.7319 21.08L59.1207 61.7936L56.6047 62.3104L56.0855 59.7944L47.6991 19.084L78.6375 12.708L81.1535 12.1904Z" fill="#22AD01"/>
<path d="M78.6375 12.708L47.6991 19.084L56.0855 59.7944L53.5695 60.3144L44.6631 17.0848L78.1207 10.192L78.6375 12.708Z" fill="#0A5425"/>
<path d="M59.8519 108.267C60.0215 108.217 60.1959 108.186 60.3719 108.174C61.4471 108.113 63.4839 107.898 64.8479 109.95C65.442 110.904 65.6835 112.036 65.5303 113.15C65.4667 113.581 65.2952 113.99 65.0318 114.338C64.7684 114.686 64.4214 114.962 64.0231 115.14C63.2439 115.495 62.4207 115.745 61.5759 115.882C59.6983 116.198 57.7455 116.028 56.8879 115.184C55.4479 113.762 53.8991 110.496 57.2623 107.046L57.4223 106.792C58.1983 107.302 59.0063 107.762 59.8391 108.173L59.8519 108.267Z" fill="#F9D99B"/>
<path d="M55.4031 78.6016L55.3727 78.6264C55.3429 78.5867 55.3047 78.5541 55.2608 78.5309C55.2169 78.5077 55.1685 78.4944 55.1189 78.492C55.0693 78.4896 55.0199 78.4982 54.974 78.5172C54.9281 78.5361 54.887 78.5649 54.8535 78.6016C54.6422 79.034 54.5133 79.502 54.4735 79.9816C53.3879 87.8405 52.8104 95.7612 52.7447 103.694C52.7799 105.522 52.9255 106.727 53.2199 106.89C53.4039 107.017 53.6295 107.066 53.8495 107.026L53.8607 107.062C53.0415 107.607 50.8551 107.882 50.2607 106.153C50.1139 104.751 50.1029 103.338 50.2279 101.934C50.5111 95.1344 51.6191 82.3344 52.2279 78.8272C52.2604 78.522 52.3364 78.223 52.4535 77.9392C53.1103 77.0784 55.3263 77.5736 55.4031 78.6016Z" fill="#22AD01"/>
<path d="M52.0799 78.8001L52.2311 78.8281C51.6207 82.3393 50.5127 95.1385 50.2311 101.935H50.1511C50.1511 101.935 45.4111 99.8073 43.0023 99.5209C39.5103 99.1089 4.03271 82.6329 4.03271 82.6329L17.6071 56.1929L49.8735 77.7025L52.0799 78.8001Z" fill="#F9D99B"/>
<path d="M144.317 52.8848L156.03 79.8608" stroke="#F9D99B" stroke-width="0.08244" stroke-linecap="round" stroke-linejoin="round"/>
<path d="M4.02954 82.6297L17.6071 56.1929" stroke="#F9D99B" stroke-width="0.08244" stroke-linecap="round" stroke-linejoin="round"/>
<path d="M116.345 139.634C103.528 148.097 87.8839 151.147 72.8266 148.119C57.7693 145.091 44.5208 136.23 35.9719 123.47C30.3144 115.024 26.9696 105.242 26.2711 95.0992" stroke="#0A5425" stroke-width="0.08244" stroke-linecap="round" stroke-linejoin="round"/>
<path d="M142.4 92.8665C142.159 101.165 140.14 109.315 136.479 116.767C132.819 124.218 127.602 130.797 121.182 136.06" stroke="#0A5425" stroke-width="0.08244" stroke-linecap="round" stroke-linejoin="round"/>
<path d="M109.856 130.371C103.524 134.554 96.2623 137.119 88.708 137.841C81.1536 138.563 73.5375 137.42 66.5279 134.512C59.5186 131.604 53.3297 127.021 48.5041 121.164C43.6786 115.307 40.3637 108.356 38.8503 100.92" stroke="#0A5425" stroke-width="0.08244" stroke-linecap="round" stroke-linejoin="round"/>
<path d="M129.851 100.32C127.828 110.999 122.116 120.626 113.714 127.52" stroke="#0A5425" stroke-width="0.08244" stroke-linecap="round" stroke-linejoin="round"/>
<path d="M115.462 57.5425C118.207 60.0191 120.647 62.814 122.73 65.8681" stroke="#0A5425" stroke-width="0.08244" stroke-linecap="round" stroke-linejoin="round"/>
<path d="M42.8735 71.076C45.0127 66.7794 47.8035 62.8394 51.1471 59.396" stroke="#0A5425" stroke-width="0.08244" stroke-linecap="round" stroke-linejoin="round"/>
<path d="M112.724 40.3937C120.042 44.5104 126.387 50.155 131.328 56.9433" stroke="#0A5425" stroke-width="0.08244" stroke-linecap="round" stroke-linejoin="round"/>
<path d="M32.8927 63.8944C36.6121 56.896 41.7171 50.7279 47.8967 45.7656" stroke="#0A5425" stroke-width="0.08244" stroke-linecap="round" stroke-linejoin="round"/>
<path d="M104.858 80.5152C104.858 80.5152 124.019 67.3808 129.029 63.784C134.119 60.1417 139.216 56.5086 144.32 52.8848" stroke="#0A5425" stroke-width="0.08244" stroke-linecap="round" stroke-linejoin="round"/>
<path d="M118.743 104.863C118.743 104.863 126.227 101.052 129.631 98.0576C133.035 95.0632 156.031 79.8608 156.031 79.8608" stroke="#0A5425" stroke-width="0.08244" stroke-linecap="round" stroke-linejoin="round"/>
<path d="M4.02954 82.6296C4.02954 82.6296 39.5079 99.1096 42.9999 99.5176C45.4087 99.804 50.1487 101.932 50.1487 101.932" stroke="#0A5425" stroke-width="0.08244" stroke-linecap="round" stroke-linejoin="round"/>
<path d="M52.0816 78.7993L49.8736 77.7025L17.6072 56.1929" stroke="#0A5425" stroke-width="0.08244" stroke-linecap="round" stroke-linejoin="round"/>
<path d="M55.912 80.4576C55.8649 79.8157 55.6811 79.1914 55.3728 78.6264C55.3431 78.5865 55.305 78.5536 55.2611 78.5302C55.2172 78.5068 55.1687 78.4935 55.119 78.4911C55.0694 78.4887 55.0198 78.4974 54.9739 78.5165C54.928 78.5356 54.8869 78.5647 54.8536 78.6016C54.6423 79.034 54.5134 79.502 54.4736 79.9816C53.3879 87.8405 52.8105 95.7612 52.7448 103.694C52.78 105.522 52.9256 106.727 53.22 106.89C53.404 107.017 53.6295 107.066 53.8495 107.026C54.5695 106.84 54.3367 105.066 54.3367 105.066" stroke="#0A5425" stroke-width="0.08244" stroke-linecap="round" stroke-linejoin="round"/>
<path d="M55.4032 78.6016C55.3232 77.5736 53.1104 77.0817 52.4584 77.9393C52.3413 78.223 52.2653 78.522 52.2328 78.8272C51.6224 82.3384 50.5144 95.1376 50.2328 101.934C50.1078 103.338 50.1188 104.751 50.2656 106.153C50.8568 107.882 53.0432 107.607 53.8656 107.062" stroke="#0A5425" stroke-width="0.08244" stroke-linecap="round" stroke-linejoin="round"/>
<path d="M54.4735 79.9816L55.8847 80.5289C58.1719 81.4169 62.4943 83.0889 63.0471 83.2841C63.3117 83.4233 63.6061 83.496 63.9051 83.496C64.2041 83.496 64.4985 83.4233 64.7631 83.2841C65.5463 82.9873 74.7575 78.1368 76.6191 77.6944C78.4807 77.252 82.1759 77.8617 82.1759 77.8617" stroke="#0A5425" stroke-width="0.08244" stroke-linecap="round" stroke-linejoin="round"/>
<path d="M52.7448 103.694C52.7448 103.694 53.4431 104.178 54.4159 104.833C55.2959 105.426 56.404 106.158 57.4216 106.793C58.1976 107.302 59.0055 107.763 59.8383 108.174" stroke="#0A5425" stroke-width="0.08244" stroke-linecap="round" stroke-linejoin="round"/>
<path d="M118.468 99.6193C118.468 100.78 119.163 102.65 118.682 104.849C118.226 106.942 116.706 109.329 112.515 111.696" stroke="#0A5425" stroke-width="0.08244" stroke-linecap="round" stroke-linejoin="round"/>
<path d="M108.621 82.3768C107.453 81.5974 106.179 80.9899 104.838 80.5728C103.884 80.2571 102.905 80.019 101.913 79.8608C97.7111 79.1896 89.0327 75.5304 85.5799 76.548C84.4134 76.8999 83.2755 77.3401 82.1759 77.8648C80.3279 78.7256 78.7063 79.66 76.9759 80.2648C74.2647 81.2136 71.8039 80.7648 71.0615 84.7272C70.3191 88.6896 70.4295 93.556 69.6839 96.856C69.5881 97.2578 69.5854 97.6762 69.6759 98.0792C70.2359 100.559 74.3887 101.533 77.1111 98.096C78.8373 95.9942 79.7715 93.3534 79.7511 90.6336C79.7456 89.8667 79.6589 89.1024 79.4927 88.3536" stroke="#0A5425" stroke-width="0.08244" stroke-linecap="round" stroke-linejoin="round"/>
<path d="M79.8583 90.6336C79.8583 90.6336 81.1095 90.1304 81.4087 89.2312C81.4087 89.2312 85.4751 88.6952 86.9519 88.4504C88.4287 88.2056 105.47 99.5976 109.649 107.286" stroke="#0A5425" stroke-width="0.08244" stroke-linecap="round" stroke-linejoin="round"/>
<path d="M109.649 107.286C110.692 108.678 111.569 110.188 112.262 111.783C112.716 112.955 112.889 114.071 112.342 114.718C110.458 116.958 108.154 116.298 106.537 114.437C106.457 114.346 106.377 114.25 106.297 114.151C104.672 112.075 100.501 107.007 100.501 107.007L97.0199 104.847" stroke="#0A5425" stroke-width="0.08244" stroke-linecap="round" stroke-linejoin="round"/>
<path d="M90.9359 97.4696C91.0071 98.2104 91.1927 98.9352 91.4863 99.6192C91.7143 99.8832 94.7551 102.625 97.0263 104.849C97.8383 105.608 98.6007 106.419 99.3087 107.277C100.241 108.547 103.906 112.29 105.553 114.855C105.976 115.41 106.254 116.062 106.362 116.752C106.327 117.257 106.173 117.746 105.912 118.179C105.651 118.612 105.29 118.976 104.86 119.242C104.43 119.507 103.943 119.667 103.439 119.707C102.935 119.747 102.428 119.666 101.962 119.472C101.904 119.448 101.848 119.418 101.796 119.384C100.402 118.521 93.5423 112.367 92.4775 111.364L92.4727 111.358" stroke="#0A5425" stroke-width="0.08244" stroke-linecap="round" stroke-linejoin="round"/>
<path d="M101.607 119.661C101.536 120.034 101.378 120.385 101.147 120.687C100.916 120.989 100.618 121.233 100.277 121.399C99.7914 121.704 99.2479 121.905 98.6808 121.99C98.1137 122.074 97.5353 122.039 96.9823 121.888C96.4863 121.648 96.0079 121.373 95.5503 121.066" stroke="#0A5425" stroke-width="0.08244" stroke-linecap="round" stroke-linejoin="round"/>
<path d="M96.9824 121.888C96.0086 123.095 94.6773 123.961 93.18 124.363C92.8647 124.476 92.5286 124.52 92.1949 124.49C91.8612 124.461 91.5379 124.359 91.2472 124.193" stroke="#0A5425" stroke-width="0.08244" stroke-linecap="round" stroke-linejoin="round"/>
<path d="M86.9519 88.4504C86.9519 88.4504 88.1951 87.2184 88.1951 86.5176" stroke="#0A5425" stroke-width="0.08244" stroke-linecap="round" stroke-linejoin="round"/>
<path d="M81.4087 89.2312C81.5191 88.6535 81.5191 88.0601 81.4087 87.4824" stroke="#0A5425" stroke-width="0.08244" stroke-linecap="round" stroke-linejoin="round"/>
<path d="M69.6104 97.8241C69.6104 97.9145 69.632 98.0025 69.6736 98.0825C70.1712 99.0889 73.6607 98.7641 74.7799 97.0873C75.9863 95.2753 74.5127 92.8665 74.5127 92.8665" stroke="#0A5425" stroke-width="0.08244" stroke-linecap="round" stroke-linejoin="round"/>
<path d="M70.3528 92.212C70.3528 92.212 71.2488 92.1432 72.4328 92.0056" stroke="#0A5425" stroke-width="0.08244" stroke-linecap="round" stroke-linejoin="round"/>
<path d="M109.251 114.855C110.07 114.614 110.822 114.186 111.448 113.606" stroke="#0A5425" stroke-width="0.08244" stroke-linecap="round" stroke-linejoin="round"/>
<path d="M106.54 114.437C106.54 114.437 105.572 114.885 105.553 114.855" stroke="#0A5425" stroke-width="0.08244" stroke-linecap="round" stroke-linejoin="round"/>
<path d="M57.9439 109.28C58.5214 108.843 59.1657 108.502 59.8519 108.271C60.0215 108.221 60.1959 108.19 60.3719 108.178C61.4471 108.117 63.4839 107.902 64.8479 109.954C65.442 110.908 65.6835 112.04 65.5303 113.154C65.4667 113.585 65.2952 113.994 65.0318 114.342C64.7684 114.69 64.4214 114.966 64.0231 115.144C63.2439 115.499 62.4207 115.749 61.5759 115.886C59.6983 116.202 57.7455 116.032 56.8879 115.188C55.4479 113.766 53.8991 110.5 57.2623 107.05" stroke="#0A5425" stroke-width="0.08244" stroke-linecap="round" stroke-linejoin="round"/>
<path d="M71.8399 112.56C71.2047 113.022 70.6767 113.415 70.3495 113.658" stroke="#0A5425" stroke-width="0.08244" stroke-linecap="round" stroke-linejoin="round"/>
<path d="M61.5759 115.883C61.5759 115.883 62.6295 120.013 64.8367 120.585C66.861 121.238 68.983 121.535 71.1087 121.465C72.2268 121.381 73.3183 121.082 74.3231 120.585C74.3231 120.585 81.6591 116.665 82.7615 114.858C83.3358 114.026 83.6208 113.029 83.5727 112.02C83.503 111.354 83.2183 110.728 82.7615 110.238C81.0759 108.346 78.7911 108.253 76.6407 109.41C74.981 110.364 73.3797 111.417 71.8455 112.562" stroke="#0A5425" stroke-width="0.08244" stroke-linecap="round" stroke-linejoin="round"/>
<path d="M71.8455 112.562H71.8431L65.5847 113.161" stroke="#0A5425" stroke-width="0.08244" stroke-linecap="round" stroke-linejoin="round"/>
<path d="M76.7896 112.232C76.2684 112.848 75.9847 113.63 75.9896 114.437C76.0286 114.776 76.1503 115.101 76.3441 115.382C76.5379 115.664 76.7978 115.893 77.1011 116.051C77.4043 116.208 77.7416 116.289 78.0833 116.286C78.425 116.283 78.7606 116.195 79.0608 116.032C80.4824 115.246 82.7592 113.654 82.1328 112.232" stroke="#0A5425" stroke-width="0.08244" stroke-linecap="round" stroke-linejoin="round"/>
<path d="M77.7655 111.36C78.2621 110.919 78.8681 110.62 79.5199 110.494C79.9784 110.474 80.4274 110.628 80.7767 110.926" stroke="#0A5425" stroke-width="0.08244" stroke-linecap="round" stroke-linejoin="round"/>
<path d="M90.9255 109.875C89.1215 108.85 87.1472 109.235 85.4424 110.568C83.5616 112.045 84.3864 111.173 83.5728 112.02C83.556 112.037 83.54 112.056 83.5208 112.075" stroke="#0A5425" stroke-width="0.08244" stroke-linecap="round" stroke-linejoin="round"/>
<path d="M71.1119 121.503C71.5477 122.892 72.514 124.052 73.8007 124.731C75.1511 125.366 76.0303 126.29 79.7863 124.726C81.6034 123.93 83.3638 123.01 85.0551 121.974C85.0551 121.974 90.9751 117.368 92.2391 115.221C92.3007 115.118 92.3543 115.011 92.3991 114.901C92.673 114.354 92.8222 113.753 92.836 113.142C92.8498 112.53 92.728 111.923 92.4791 111.365C92.2665 110.969 91.9736 110.623 91.6191 110.347C91.405 110.175 91.1767 110.02 90.9367 109.886" stroke="#0A5425" stroke-width="0.08244" stroke-linecap="round" stroke-linejoin="round"/>
<path d="M86.0663 113.323C85.6597 114.02 85.5145 114.839 85.6567 115.633C85.8013 116.128 86.1243 116.552 86.5633 116.823C87.0023 117.094 87.5261 117.192 88.0335 117.099C88.3695 117.038 88.6855 116.895 88.9535 116.683C90.2239 115.666 92.1951 113.711 91.3375 112.416" stroke="#0A5425" stroke-width="0.08244" stroke-linecap="round" stroke-linejoin="round"/>
<path d="M86.8799 112.295C87.2946 111.778 87.8405 111.381 88.4607 111.146C88.9099 111.048 89.3793 111.124 89.7751 111.358" stroke="#0A5425" stroke-width="0.08244" stroke-linecap="round" stroke-linejoin="round"/>
<path d="M79.8639 124.907C80.0175 125.425 80.2865 125.902 80.6508 126.301C81.0151 126.7 81.4651 127.011 81.9671 127.211C83.5863 127.973 85.5935 127.382 90.1199 124.723C90.1199 124.723 90.4135 124.52 90.8727 124.187C92.2553 123.206 93.5732 122.138 94.8183 120.987C95.1879 120.645 95.5149 120.26 95.7919 119.84C96.8319 118.086 96.7959 117 95.6487 116.087C95.2177 115.679 94.6872 115.392 94.1101 115.253C93.5331 115.115 92.9298 115.13 92.3607 115.298" stroke="#0A5425" stroke-width="0.08244" stroke-linecap="round" stroke-linejoin="round"/>
<path d="M91.1288 117.967C90.8144 118.506 90.7024 119.138 90.8128 119.752C90.8872 120.006 91.0226 120.238 91.2073 120.427C91.3919 120.616 91.6201 120.758 91.872 120.838C92.124 120.919 92.3919 120.936 92.6521 120.888C92.9123 120.841 93.1568 120.73 93.364 120.566C94.3456 119.779 95.872 118.267 95.204 117.263" stroke="#0A5425" stroke-width="0.08244" stroke-linecap="round" stroke-linejoin="round"/>
<path d="M91.7599 117.17C92.0816 116.77 92.5052 116.463 92.9863 116.282C93.3332 116.206 93.696 116.265 94.0007 116.447" stroke="#0A5425" stroke-width="0.08244" stroke-linecap="round" stroke-linejoin="round"/>
<path d="M88.1952 106.392L89.116 108.149L90.9256 109.875L90.936 109.884" stroke="#0A5425" stroke-width="0.08244" stroke-linecap="round" stroke-linejoin="round"/>
<path d="M64.0232 115.141C63.2243 114.775 62.4957 114.271 61.8704 113.654C61.4455 113.1 61.1512 112.458 61.0096 111.775C60.9795 111.621 60.9099 111.477 60.8074 111.358C60.7049 111.238 60.5731 111.148 60.425 111.095C60.2769 111.042 60.1176 111.028 59.9627 111.056C59.8078 111.083 59.6627 111.15 59.5416 111.25C59.1567 111.535 58.8872 111.949 58.7824 112.416C58.6608 112.953 58.7233 113.514 58.9597 114.011C59.196 114.508 59.5926 114.91 60.0856 115.154" stroke="#0A5425" stroke-width="0.08244" stroke-linecap="round" stroke-linejoin="round"/>
<path d="M87.5215 58.5625L59.6375 64.3065L59.1207 61.7937L50.7319 21.0801L81.6727 14.7041L84.1863 14.1873L91.9727 51.9665" stroke="#0A5425" stroke-width="0.08244" stroke-linecap="round" stroke-linejoin="round"/>
<path d="M59.1207 61.7936L56.6047 62.3104L56.0855 59.7944L47.6991 19.084L78.6375 12.708L81.1535 12.1904L81.6727 14.704V14.7064" stroke="#0A5425" stroke-width="0.08244" stroke-linecap="round" stroke-linejoin="round"/>
<path d="M56.0855 59.7944L53.5695 60.3144L44.6631 17.0848L78.1207 10.192L78.6375 12.708" stroke="#0A5425" stroke-width="0.08244" stroke-linecap="round" stroke-linejoin="round"/>
<path d="M57.24 25.7352L80.0504 21.036" stroke="#0A5425" stroke-width="0.08244" stroke-linecap="round" stroke-linejoin="round"/>
<path d="M59.5327 30.5088L82.3439 25.8064" stroke="#0A5425" stroke-width="0.08244" stroke-linecap="round" stroke-linejoin="round"/>
<path d="M57.5367 33.5416L82.8631 28.3224" stroke="#0A5425" stroke-width="0.08244" stroke-linecap="round" stroke-linejoin="round"/>
<path d="M58.0536 36.0568L83.38 30.8384" stroke="#0A5425" stroke-width="0.08244" stroke-linecap="round" stroke-linejoin="round"/>
<path d="M58.5735 38.5728L76.3527 34.908" stroke="#0A5425" stroke-width="0.08244" stroke-linecap="round" stroke-linejoin="round"/>
<path d="M61.6063 40.5696L84.4167 35.8704" stroke="#0A5425" stroke-width="0.08244" stroke-linecap="round" stroke-linejoin="round"/>
<path d="M59.6104 43.6025L84.9367 38.3865" stroke="#0A5425" stroke-width="0.08244" stroke-linecap="round" stroke-linejoin="round"/>
<path d="M60.1271 46.1176L85.4535 40.8992" stroke="#0A5425" stroke-width="0.08244" stroke-linecap="round" stroke-linejoin="round"/>
<path d="M63.1599 48.1169L85.9735 43.4153" stroke="#0A5425" stroke-width="0.08244" stroke-linecap="round" stroke-linejoin="round"/>
<path d="M61.1639 51.1496L86.4903 45.9312" stroke="#0A5425" stroke-width="0.08244" stroke-linecap="round" stroke-linejoin="round"/>
<path d="M61.6831 53.6657L87.0095 48.4473" stroke="#0A5425" stroke-width="0.08244" stroke-linecap="round" stroke-linejoin="round"/>
<path d="M69.7695 58.5544L72.3519 58.024L75.4199 57.3912L81.7935 56.0768L83.0039 55.8264L85.0359 55.4088" stroke="#0A5425" stroke-width="0.08244" stroke-linecap="round" stroke-linejoin="round"/>
<path d="M77.2799 54.6744C77.1999 54.9664 76.7047 56.8032 77.3871 56.8224C78.1239 56.844 79.8039 52.6072 79.8039 52.6072C79.8039 52.6072 78.9815 56.0472 79.9767 56.1184C80.9719 56.1896 80.8271 53.6712 81.6903 53.4376C82.2975 53.272 81.7943 55.0704 81.7943 56.0776C81.7943 56.5096 81.8879 56.7976 82.1991 56.7176C82.5863 56.6216 82.8199 56.256 83.0047 55.8264C83.3071 55.1064 83.4799 54.2096 84.0191 54.0752" stroke="#0A5425" stroke-width="0.08244" stroke-linecap="round" stroke-linejoin="round"/>
<path d="M74.08 55.9121C74.432 56.7673 74.96 57.4321 75.4048 57.3281C76.4168 57.0833 77.1704 54.9857 77.2776 54.6745C77.2795 54.6652 77.2822 54.6561 77.2856 54.6473V54.6393" stroke="#0A5425" stroke-width="0.08244" stroke-linecap="round" stroke-linejoin="round"/>
<path d="M74.08 55.912C74.896 54.372 75.3472 52.5656 74.3712 52.816C73.424 53.0608 73.5752 54.68 74.08 55.912Z" stroke="#0A5425" stroke-width="0.08244" stroke-linecap="round" stroke-linejoin="round"/>
<path d="M72.3328 57.9328C72.88 57.7848 73.556 56.9048 74.0816 55.912" stroke="#0A5425" stroke-width="0.08244" stroke-linecap="round" stroke-linejoin="round"/>
<path d="M68.1919 55.5601L66.9271 57.4817L65.6624 59.4009" stroke="#0A5425" stroke-width="0.08244" stroke-linecap="round" stroke-linejoin="round"/>
<path d="M65.0048 56.2168L66.9272 57.4816L68.8464 58.744" stroke="#0A5425" stroke-width="0.08244" stroke-linecap="round" stroke-linejoin="round"/>
<path d="M87.5407 58.5544C88 59.8587 88.6726 61.0776 89.5311 62.1616C91.2952 64.456 93.7678 66.1032 96.5647 66.8472L95.7895 71.5432C95.7251 71.9398 95.7792 72.3466 95.945 72.7127C96.1108 73.0787 96.3809 73.3876 96.7215 73.6008C97.0628 73.8136 97.4596 73.9202 97.8615 73.9071C98.2635 73.894 98.6524 73.7618 98.9791 73.5272C99.1962 73.3719 99.3805 73.1753 99.5215 72.9487C99.6625 72.722 99.7573 72.4698 99.8007 72.2064L100.585 67.452C101.754 67.4768 102.922 67.3482 104.058 67.0696C105.807 66.651 107.453 65.8786 108.894 64.8C110.317 63.7251 111.529 62.396 112.468 60.88C113.453 59.2897 114.11 57.518 114.4 55.6696C114.855 53.0424 114.612 50.3416 113.694 47.8392C112.775 45.3328 110.706 43.1312 107.488 41.2344L105.148 39.8184L106.786 29.8896C107.086 30.1152 107.361 30.372 107.606 30.6568C108.205 31.3776 108.543 32.2797 108.566 33.2168C108.587 33.5696 108.728 33.9045 108.966 34.1663C109.203 34.4281 109.523 34.6011 109.872 34.6568L115.566 35.5968C115.783 35.633 116.005 35.6232 116.218 35.5681C116.43 35.513 116.629 35.4139 116.801 35.277C116.973 35.1402 117.114 34.9688 117.215 34.7739C117.317 34.579 117.376 34.3649 117.39 34.1456C117.453 32.8919 117.349 31.6353 117.082 30.4088C116.722 28.7132 116.04 27.1023 115.074 25.6632C114.117 24.2556 112.871 23.0673 111.42 22.1768C110.443 21.5721 109.391 21.0986 108.291 20.7688L108.978 16.5976C109.044 16.2009 108.991 15.7935 108.825 15.4271C108.659 15.0608 108.388 14.752 108.046 14.54C107.762 14.3637 107.439 14.2601 107.106 14.2383C106.772 14.2166 106.438 14.2773 106.134 14.4153C105.829 14.5532 105.563 14.764 105.36 15.0292C105.156 15.2943 105.021 15.6055 104.966 15.9352L104.277 20.1168C103.169 20.0823 102.061 20.1792 100.977 20.4056C99.2801 20.7552 97.6757 21.4567 96.2671 22.4648C94.7921 23.4724 93.5351 24.7666 92.5711 26.2704C91.5588 27.8494 90.8866 29.622 90.5975 31.4752C90.047 34.278 90.4689 37.1846 91.7935 39.7152C93.2013 42.2335 95.2924 44.3024 97.8255 45.6832L99.8663 46.8416L98.0183 58.0416C97.2521 57.6982 96.6414 57.0815 96.3055 56.312C96.023 55.6603 95.82 54.977 95.7007 54.2768C95.6161 53.7712 95.3759 53.3045 95.0135 52.9419C94.6511 52.5792 94.1847 52.3386 93.6791 52.2536L91.9719 51.9728L89.5663 51.5728C89.0279 51.4845 88.4753 51.5776 87.9955 51.8375C87.5157 52.0974 87.136 52.5095 86.9159 53.0088C86.7697 53.3399 86.6981 53.699 86.7063 54.0608C86.7285 55.5951 87.0107 57.1145 87.5407 58.5544Z" stroke="#0A5425" stroke-width="0.08244" stroke-linecap="round" stroke-linejoin="round"/>
<path d="M99.52 35.4136C99.2354 34.5804 99.159 33.6903 99.2976 32.8208C99.4801 31.6402 100.087 30.5666 101.005 29.8016C101.52 29.3576 102.146 29.0619 102.817 28.9464L101.401 37.5224C100.57 37.0321 99.9124 36.295 99.52 35.4136Z" stroke="#0A5425" stroke-width="0.08244" stroke-linecap="round" stroke-linejoin="round"/>
<path d="M103.494 57.82C103.049 58.0819 102.572 58.2852 102.075 58.4248L103.609 49.1368C104.273 49.635 104.823 50.2688 105.223 50.996C105.744 52.0557 105.905 53.2564 105.682 54.416C105.604 55.1137 105.366 55.7839 104.987 56.3743C104.607 56.9648 104.096 57.4595 103.494 57.82Z" stroke="#0A5425" stroke-width="0.08244" stroke-linecap="round" stroke-linejoin="round"/>
</svg>
