<svg width="160" height="160" viewBox="0 0 160 160" fill="none" xmlns="http://www.w3.org/2000/svg">
<g id="Business Deal">
<g id="business-deal-london-200-ico_3AwJSALza8t3bUkE">
<path id="Vector" d="M69.6736 98.08C69.5831 97.6769 69.5858 97.2586 69.6816 96.8568C70.4272 93.5568 70.3144 88.6872 71.0592 84.728C71.804 80.7688 74.2592 81.2144 76.9736 80.2656C78.7064 79.6576 80.328 78.7232 82.1736 77.8656C83.273 77.3405 84.411 76.9003 85.5776 76.5488C89.0336 75.5312 97.7088 79.1888 101.91 79.8616C102.903 80.0192 103.882 80.2576 104.836 80.5736L104.855 80.516C104.855 80.516 124.017 67.3816 129.026 63.7848C134.036 60.188 144.32 52.8848 144.32 52.8848L156.033 79.8608C156.033 79.8608 133.036 95.0608 129.633 98.0576C126.23 101.054 118.745 104.863 118.745 104.863L118.684 104.849C118.227 106.942 116.707 109.329 112.517 111.695L112.264 111.783C111.571 110.188 110.694 108.678 109.651 107.286C105.472 99.5976 88.4272 88.2056 86.9536 88.4504C85.48 88.6952 81.4104 89.2312 81.4104 89.2312C81.1112 90.1304 79.86 90.6336 79.86 90.6336H79.7528C79.7732 93.3533 78.8389 95.9941 77.1128 98.096C74.3864 101.536 70.2344 100.56 69.6736 98.08Z" fill="#F9D99B"/>
<path id="Vector_2" d="M117.082 30.4097C117.35 31.6358 117.454 32.8922 117.39 34.1457C117.378 34.3653 117.319 34.5798 117.218 34.7751C117.116 34.9703 116.975 35.1419 116.802 35.2785C116.63 35.4155 116.432 35.5147 116.219 35.5697C116.006 35.6247 115.784 35.6343 115.567 35.5977L109.873 34.6577C109.524 34.6023 109.204 34.4295 108.966 34.1676C108.729 33.9057 108.588 33.5706 108.566 33.2177C108.544 32.2805 108.206 31.3785 107.606 30.6577C107.362 30.373 107.087 30.1155 106.787 29.8897L105.149 39.8193L107.489 41.2353C110.708 43.1329 112.777 45.3345 113.694 47.8401C114.612 50.3429 114.856 53.0431 114.4 55.6697C114.111 57.5191 113.455 59.2919 112.47 60.8833C111.53 62.3993 110.318 63.7284 108.895 64.8033C107.455 65.8814 105.809 66.6532 104.059 67.0713C102.923 67.3497 101.756 67.4785 100.586 67.4537L99.8024 72.2081C99.7591 72.4716 99.6642 72.724 99.5233 72.9508C99.3823 73.1776 99.1979 73.3744 98.9808 73.5298C98.7637 73.6853 98.518 73.7964 98.2578 73.8568C97.9977 73.9172 97.7282 73.9256 97.4648 73.8817C97.2014 73.8384 96.9491 73.7435 96.7225 73.6025C96.4958 73.4615 96.2992 73.2772 96.144 73.0601C95.831 72.6214 95.7042 72.0767 95.7912 71.5449L96.5664 66.8489C93.7692 66.1056 91.2963 64.4582 89.5328 62.1633C88.6742 61.0791 88.0016 59.8598 87.5424 58.5553C87.399 58.1611 87.2733 57.7607 87.1656 57.3553C86.8788 56.2795 86.7253 55.1725 86.7088 54.0593C86.7008 53.6976 86.7726 53.3386 86.9189 53.0077C87.0652 52.6768 87.2826 52.3822 87.5555 52.1448C87.8285 51.9074 88.1503 51.7329 88.4983 51.6338C88.8462 51.5346 89.2117 51.5133 89.5688 51.5713L91.9744 51.9713L93.6816 52.2513C94.1871 52.3367 94.6535 52.5775 95.0158 52.9402C95.3781 53.303 95.6184 53.7696 95.7032 54.2753C95.8224 54.9761 96.0256 55.6593 96.308 56.3105C96.6438 57.08 97.2545 57.6967 98.0208 58.0401L99.8688 46.8401L97.8264 45.6801C95.2931 44.299 93.202 42.2298 91.7944 39.7113C90.4697 37.1807 90.0478 34.274 90.5984 31.4713C90.8875 29.6181 91.5597 27.8455 92.572 26.2665C93.536 24.7627 94.793 23.4684 96.268 22.4609C97.6766 21.4528 99.281 20.7513 100.978 20.4017C102.062 20.1753 103.17 20.0784 104.278 20.1129L104.967 15.9313C105.006 15.6634 105.097 15.4059 105.237 15.1739C105.376 14.9419 105.56 14.74 105.778 14.58C105.997 14.4201 106.245 14.3054 106.508 14.2426C106.771 14.1797 107.044 14.1701 107.311 14.2142C107.578 14.2583 107.834 14.3552 108.063 14.4993C108.292 14.6434 108.49 14.8318 108.645 15.0534C108.801 15.275 108.91 15.5254 108.968 15.7899C109.025 16.0544 109.029 16.3276 108.979 16.5937L108.292 20.7649C109.392 21.0947 110.444 21.5682 111.421 22.1729C112.872 23.0634 114.117 24.2517 115.075 25.6593C116.042 27.0999 116.723 28.7125 117.082 30.4097ZM105.68 54.4161C105.903 53.2565 105.742 52.0558 105.221 50.9961C104.821 50.2688 104.27 49.6351 103.606 49.1369L102.073 58.4249C102.57 58.2852 103.046 58.082 103.491 57.8201C104.094 57.4596 104.604 56.9648 104.984 56.3743C105.364 55.7839 105.602 55.1137 105.68 54.4161ZM101.404 37.5201L102.82 28.9441C102.15 29.0597 101.523 29.3553 101.008 29.7993C100.09 30.5643 99.4834 31.6378 99.3008 32.8185C99.1624 33.6877 99.2387 34.5775 99.5232 35.4105C99.9155 36.2921 100.573 37.0296 101.404 37.5201Z" fill="#4267E9"/>
<path id="Vector_3" d="M69.6736 98.08C70.2336 100.56 74.3864 101.534 77.1088 98.0968C78.835 95.9949 79.7692 93.3541 79.7488 90.6344H79.856C79.856 90.6344 81.1072 90.1312 81.4064 89.232C81.4064 89.232 85.4728 88.696 86.9496 88.4512C88.4264 88.2064 105.468 99.5984 109.647 107.286C110.69 108.679 111.567 110.188 112.26 111.784C112.714 112.956 112.886 114.072 112.34 114.718C110.456 116.958 108.152 116.299 106.535 114.438C106.455 114.347 106.375 114.25 106.295 114.152C104.67 112.076 100.498 107.008 100.498 107.008L97.0176 104.848C97.8296 105.608 98.592 106.419 99.3 107.276C100.232 108.546 103.898 112.289 105.544 114.854C105.967 115.409 106.245 116.061 106.353 116.751C106.319 117.256 106.165 117.745 105.904 118.178C105.642 118.611 105.282 118.975 104.851 119.241C104.421 119.506 103.934 119.666 103.43 119.706C102.926 119.746 102.42 119.665 101.953 119.471C101.895 119.447 101.84 119.418 101.787 119.383C100.394 118.52 93.5336 112.366 92.4688 111.363C92.2562 110.968 91.9632 110.621 91.6088 110.346C91.3947 110.173 91.1664 110.018 90.9264 109.884L90.916 109.875C89.112 108.85 87.1376 109.235 85.4328 110.568C83.552 112.045 84.3768 111.173 83.5632 112.02C83.4935 111.354 83.2088 110.728 82.752 110.238C81.0664 108.346 78.7816 108.253 76.6312 109.41C74.9714 110.364 73.3702 111.417 71.836 112.562L65.5776 113.161L65.5232 113.15C65.6764 112.037 65.4349 110.905 64.8408 109.95C63.4808 107.899 61.44 108.11 60.3648 108.174C60.1888 108.186 60.0144 108.218 59.8448 108.268L59.8312 108.174C58.998 107.764 58.1909 107.303 57.4144 106.794C56.4021 106.156 55.4001 105.503 54.4088 104.834C53.8494 104.458 53.2923 104.078 52.7376 103.695C52.8032 95.7616 53.3808 87.8416 54.4664 79.9824L55.8776 80.5296C58.1648 81.4176 62.4872 83.0896 63.04 83.2848C63.3046 83.424 63.599 83.4968 63.898 83.4968C64.197 83.4968 64.4914 83.424 64.756 83.2848C65.5392 82.988 74.7504 78.1376 76.612 77.6952C78.4736 77.2528 82.1688 77.8624 82.1688 77.8624C80.3208 78.7232 78.6992 79.6576 76.9688 80.2624C74.2576 81.2112 71.7968 80.7624 71.0544 84.7248C70.312 88.6872 70.4224 93.5536 69.6768 96.8536C69.5822 97.2568 69.5811 97.6763 69.6736 98.08Z" fill="#F9D99B"/>
<path id="Vector_4" d="M106.304 114.151C106.384 114.25 106.464 114.346 106.544 114.437C106.544 114.437 105.576 114.885 105.557 114.855C103.91 112.29 100.245 108.547 99.3128 107.277C98.6045 106.42 97.8422 105.609 97.0304 104.849L100.511 107.009C100.511 107.009 104.678 112.075 106.304 114.151Z" fill="#F9D99B"/>
<path id="Vector_5" d="M101.797 119.383L101.607 119.661C101.536 120.034 101.378 120.385 101.147 120.687C100.916 120.989 100.618 121.233 100.277 121.399C99.7915 121.704 99.248 121.905 98.6809 121.99C98.1138 122.074 97.5354 122.039 96.9824 121.888C96.4864 121.648 96.008 121.373 95.5504 121.066L94.8184 120.986C95.1881 120.645 95.515 120.259 95.792 119.839C96.832 118.086 96.796 116.999 95.6488 116.086C95.2178 115.678 94.6873 115.391 94.1102 115.252C93.5332 115.114 92.9299 115.13 92.3608 115.298L92.2392 115.223C92.3008 115.121 92.3544 115.014 92.3992 114.903C92.6728 114.356 92.8219 113.756 92.8357 113.144C92.8496 112.533 92.7278 111.926 92.4792 111.367C93.5432 112.366 100.4 118.52 101.797 119.383Z" fill="#F9D99B"/>
<path id="Vector_6" d="M96.9824 121.888C96.0086 123.094 94.6774 123.961 93.18 124.363C92.8647 124.476 92.5286 124.519 92.1949 124.49C91.8612 124.461 91.5379 124.359 91.2472 124.193L90.8728 124.187C92.2554 123.206 93.5734 122.138 94.8184 120.987L95.5504 121.067C96.008 121.374 96.4864 121.648 96.9824 121.888Z" fill="#F9D99B"/>
<path id="Vector_7" d="M95.6488 116.08C96.796 116.993 96.8288 118.08 95.792 119.833C95.515 120.253 95.1881 120.638 94.8184 120.98C93.5733 122.13 92.2554 123.199 90.8728 124.18C90.4136 124.513 90.12 124.716 90.12 124.716C85.5936 127.375 83.5864 127.966 81.9672 127.204C81.4656 127.003 81.0159 126.692 80.6516 126.293C80.2874 125.894 80.0182 125.418 79.864 124.9L79.784 124.718C81.6011 123.922 83.3615 123.003 85.0528 121.966C85.0528 121.966 90.9728 117.361 92.2368 115.214L92.3584 115.288C92.9281 115.12 93.5321 115.104 94.1096 115.243C94.6872 115.382 95.218 115.671 95.6488 116.08Z" fill="#F9D99B"/>
<path id="Vector_8" d="M92.48 111.36C92.7287 111.919 92.8504 112.526 92.8366 113.137C92.8228 113.748 92.6737 114.349 92.4 114.896C92.3551 115.007 92.3016 115.114 92.24 115.216C90.9752 117.363 85.056 121.969 85.056 121.969C83.3647 123.005 81.6043 123.925 79.7872 124.721C76.0272 126.286 75.152 125.361 73.8016 124.726C72.5149 124.047 71.5486 122.887 71.1128 121.498V121.46C72.2309 121.376 73.3223 121.077 74.3272 120.58C74.3272 120.58 81.6632 116.66 82.7656 114.853C83.3399 114.022 83.625 113.024 83.5768 112.015C84.3904 111.168 83.5656 112.04 85.4464 110.563C87.1512 109.23 89.1264 108.845 90.9296 109.87L90.94 109.879C91.18 110.014 91.408 110.168 91.6224 110.341C91.976 110.617 92.2688 110.964 92.48 111.36Z" fill="#F9D99B"/>
<path id="Vector_9" d="M71.84 112.56C73.3761 111.415 74.979 110.363 76.64 109.409C78.7904 108.251 81.0752 108.345 82.7608 110.237C83.2175 110.727 83.5023 111.352 83.572 112.018C83.6201 113.028 83.335 114.025 82.7608 114.856C81.6584 116.662 74.3224 120.583 74.3224 120.583C73.3175 121.081 72.2261 121.379 71.108 121.463C68.9822 121.534 66.8603 121.236 64.836 120.583C62.6288 120.011 61.5752 115.882 61.5752 115.882C62.4203 115.744 63.2433 115.494 64.0224 115.139C64.4207 114.961 64.7675 114.685 65.031 114.337C65.2944 113.989 65.4659 113.58 65.5296 113.149L65.584 113.159L71.84 112.56Z" fill="#F9D99B"/>
<path id="Vector_10" d="M81.1536 12.1904L81.6728 14.704L50.732 21.08L59.1208 61.7936L56.6048 62.3104L56.0856 59.7944L47.6992 19.084L78.6376 12.708L81.1536 12.1904Z" fill="#4267E9"/>
<path id="Vector_11" d="M78.6376 12.708L47.6992 19.084L56.0856 59.7944L53.5696 60.3144L44.6632 17.0848L78.1208 10.192L78.6376 12.708Z" fill="#313553"/>
<path id="Vector_12" d="M59.852 108.267C60.0216 108.217 60.196 108.186 60.372 108.174C61.4472 108.113 63.484 107.898 64.848 109.95C65.4421 110.904 65.6835 112.036 65.5304 113.15C65.4668 113.581 65.2953 113.99 65.0319 114.338C64.7684 114.686 64.4215 114.962 64.0232 115.14C63.244 115.495 62.4208 115.745 61.576 115.882C59.6984 116.198 57.7456 116.028 56.888 115.184C55.448 113.762 53.8992 110.496 57.2624 107.046L57.4224 106.792C58.1984 107.302 59.0064 107.762 59.8392 108.173L59.852 108.267Z" fill="#F9D99B"/>
<path id="Vector_13" d="M55.4032 78.6016L55.3728 78.6264C55.343 78.5867 55.3048 78.5541 55.2609 78.5309C55.2171 78.5077 55.1686 78.4944 55.119 78.492C55.0695 78.4896 55.02 78.4982 54.9741 78.5172C54.9282 78.5361 54.8871 78.5649 54.8536 78.6016C54.6423 79.034 54.5135 79.502 54.4736 79.9816C53.388 87.8405 52.8105 95.7612 52.7448 103.694C52.78 105.522 52.9256 106.727 53.22 106.89C53.404 107.017 53.6296 107.066 53.8496 107.026L53.8608 107.062C53.0416 107.607 50.8552 107.882 50.2608 106.153C50.114 104.751 50.103 103.338 50.228 101.934C50.5112 95.1344 51.6192 82.3344 52.228 78.8272C52.2606 78.522 52.3365 78.223 52.4536 77.9392C53.1104 77.0784 55.3264 77.5736 55.4032 78.6016Z" fill="#4267E9"/>
<path id="Vector_14" d="M52.08 78.8001L52.2312 78.8281C51.6208 82.3393 50.5128 95.1385 50.2312 101.935H50.1512C50.1512 101.935 45.4112 99.8073 43.0024 99.5209C39.5104 99.1089 4.03278 82.6329 4.03278 82.6329L17.6072 56.1929L49.8736 77.7025L52.08 78.8001Z" fill="#F9D99B"/>
<path id="Vector_15" d="M144.317 52.8848L156.03 79.8608" stroke="#F9D99B" stroke-width="0.08244" stroke-linecap="round" stroke-linejoin="round"/>
<path id="Vector_16" d="M4.0296 82.6297L17.6072 56.1929" stroke="#F9D99B" stroke-width="0.08244" stroke-linecap="round" stroke-linejoin="round"/>
<path id="Vector_17" d="M116.345 139.634C103.528 148.097 87.8839 151.147 72.8266 148.119C57.7693 145.091 44.5209 136.23 35.972 123.47C30.3144 115.024 26.9697 105.242 26.2712 95.0992" stroke="#313553" stroke-width="0.08244" stroke-linecap="round" stroke-linejoin="round"/>
<path id="Vector_18" d="M142.4 92.8665C142.159 101.165 140.14 109.315 136.479 116.767C132.819 124.218 127.602 130.797 121.182 136.06" stroke="#313553" stroke-width="0.08244" stroke-linecap="round" stroke-linejoin="round"/>
<path id="Vector_19" d="M109.856 130.371C103.524 134.554 96.2624 137.119 88.708 137.841C81.1537 138.563 73.5376 137.42 66.528 134.512C59.5186 131.604 53.3298 127.021 48.5042 121.164C43.6786 115.307 40.3638 108.356 38.8504 100.92" stroke="#313553" stroke-width="0.08244" stroke-linecap="round" stroke-linejoin="round"/>
<path id="Vector_20" d="M129.851 100.32C127.828 110.999 122.116 120.626 113.714 127.52" stroke="#313553" stroke-width="0.08244" stroke-linecap="round" stroke-linejoin="round"/>
<path id="Vector_21" d="M115.462 57.5425C118.207 60.0191 120.647 62.814 122.73 65.8681" stroke="#313553" stroke-width="0.08244" stroke-linecap="round" stroke-linejoin="round"/>
<path id="Vector_22" d="M42.8736 71.076C45.0127 66.7794 47.8036 62.8394 51.1472 59.396" stroke="#313553" stroke-width="0.08244" stroke-linecap="round" stroke-linejoin="round"/>
<path id="Vector_23" d="M112.724 40.3937C120.042 44.5104 126.387 50.155 131.328 56.9433" stroke="#313553" stroke-width="0.08244" stroke-linecap="round" stroke-linejoin="round"/>
<path id="Vector_24" d="M32.8928 63.8944C36.6122 56.896 41.7172 50.7279 47.8968 45.7656" stroke="#313553" stroke-width="0.08244" stroke-linecap="round" stroke-linejoin="round"/>
<path id="Vector_25" d="M104.858 80.5152C104.858 80.5152 124.019 67.3808 129.029 63.784C134.119 60.1417 139.216 56.5086 144.32 52.8848" stroke="#313553" stroke-width="0.08244" stroke-linecap="round" stroke-linejoin="round"/>
<path id="Vector_26" d="M118.743 104.863C118.743 104.863 126.227 101.052 129.631 98.0576C133.035 95.0632 156.031 79.8608 156.031 79.8608" stroke="#313553" stroke-width="0.08244" stroke-linecap="round" stroke-linejoin="round"/>
<path id="Vector_27" d="M4.0296 82.6296C4.0296 82.6296 39.508 99.1096 43 99.5176C45.4088 99.804 50.1488 101.932 50.1488 101.932" stroke="#313553" stroke-width="0.08244" stroke-linecap="round" stroke-linejoin="round"/>
<path id="Vector_28" d="M52.0816 78.7993L49.8736 77.7025L17.6072 56.1929" stroke="#313553" stroke-width="0.08244" stroke-linecap="round" stroke-linejoin="round"/>
<path id="Vector_29" d="M55.912 80.4576C55.865 79.8157 55.6811 79.1914 55.3728 78.6264C55.3432 78.5865 55.305 78.5536 55.2612 78.5302C55.2173 78.5068 55.1688 78.4935 55.1191 78.4911C55.0694 78.4887 55.0198 78.4974 54.9739 78.5165C54.928 78.5356 54.8869 78.5647 54.8536 78.6016C54.6423 79.034 54.5135 79.502 54.4736 79.9816C53.388 87.8405 52.8105 95.7612 52.7448 103.694C52.78 105.522 52.9256 106.727 53.22 106.89C53.404 107.017 53.6296 107.066 53.8496 107.026C54.5696 106.84 54.3368 105.066 54.3368 105.066" stroke="#313553" stroke-width="0.08244" stroke-linecap="round" stroke-linejoin="round"/>
<path id="Vector_30" d="M55.4032 78.6016C55.3232 77.5736 53.1104 77.0817 52.4584 77.9393C52.3413 78.223 52.2653 78.522 52.2328 78.8272C51.6224 82.3384 50.5144 95.1376 50.2328 101.934C50.1078 103.338 50.1188 104.751 50.2656 106.153C50.8568 107.882 53.0432 107.607 53.8656 107.062" stroke="#313553" stroke-width="0.08244" stroke-linecap="round" stroke-linejoin="round"/>
<path id="Vector_31" d="M54.4736 79.9816L55.8848 80.5289C58.172 81.4169 62.4944 83.0889 63.0472 83.2841C63.3118 83.4233 63.6063 83.496 63.9052 83.496C64.2042 83.496 64.4987 83.4233 64.7632 83.2841C65.5464 82.9873 74.7576 78.1368 76.6192 77.6944C78.4808 77.252 82.176 77.8617 82.176 77.8617" stroke="#313553" stroke-width="0.08244" stroke-linecap="round" stroke-linejoin="round"/>
<path id="Vector_32" d="M52.7448 103.694C52.7448 103.694 53.4432 104.178 54.416 104.833C55.296 105.426 56.404 106.158 57.4216 106.793C58.1976 107.302 59.0056 107.763 59.8384 108.174" stroke="#313553" stroke-width="0.08244" stroke-linecap="round" stroke-linejoin="round"/>
<path id="Vector_33" d="M118.468 99.6193C118.468 100.78 119.163 102.65 118.682 104.849C118.226 106.942 116.706 109.329 112.515 111.696" stroke="#313553" stroke-width="0.08244" stroke-linecap="round" stroke-linejoin="round"/>
<path id="Vector_34" d="M108.622 82.3768C107.453 81.5974 106.179 80.9899 104.838 80.5728C103.884 80.2571 102.906 80.019 101.913 79.8608C97.7112 79.1896 89.0328 75.5304 85.58 76.548C84.4135 76.8999 83.2756 77.3401 82.176 77.8648C80.328 78.7256 78.7064 79.66 76.976 80.2648C74.2648 81.2136 71.804 80.7648 71.0616 84.7272C70.3192 88.6896 70.4296 93.556 69.684 96.856C69.5883 97.2578 69.5855 97.6762 69.676 98.0792C70.236 100.559 74.3888 101.533 77.1112 98.096C78.8374 95.9942 79.7716 93.3534 79.7512 90.6336C79.7457 89.8667 79.6591 89.1024 79.4928 88.3536" stroke="#313553" stroke-width="0.08244" stroke-linecap="round" stroke-linejoin="round"/>
<path id="Vector_35" d="M79.8584 90.6336C79.8584 90.6336 81.1096 90.1304 81.4088 89.2312C81.4088 89.2312 85.4752 88.6952 86.952 88.4504C88.4288 88.2056 105.47 99.5976 109.65 107.286" stroke="#313553" stroke-width="0.08244" stroke-linecap="round" stroke-linejoin="round"/>
<path id="Vector_36" d="M109.65 107.286C110.692 108.678 111.569 110.188 112.262 111.783C112.716 112.955 112.889 114.071 112.342 114.718C110.458 116.958 108.154 116.298 106.538 114.437C106.458 114.346 106.378 114.25 106.298 114.151C104.672 112.075 100.501 107.007 100.501 107.007L97.02 104.847" stroke="#313553" stroke-width="0.08244" stroke-linecap="round" stroke-linejoin="round"/>
<path id="Vector_37" d="M90.936 97.4696C91.0072 98.2104 91.1928 98.9352 91.4864 99.6192C91.7144 99.8832 94.7552 102.625 97.0264 104.849C97.8384 105.608 98.6008 106.419 99.3088 107.277C100.241 108.547 103.906 112.29 105.553 114.855C105.976 115.41 106.254 116.062 106.362 116.752C106.328 117.257 106.173 117.746 105.912 118.179C105.651 118.612 105.29 118.976 104.86 119.242C104.43 119.507 103.943 119.667 103.439 119.707C102.935 119.747 102.428 119.666 101.962 119.472C101.904 119.448 101.848 119.418 101.796 119.384C100.402 118.521 93.5424 112.367 92.4776 111.364L92.4728 111.358" stroke="#313553" stroke-width="0.08244" stroke-linecap="round" stroke-linejoin="round"/>
<path id="Vector_38" d="M101.607 119.661C101.536 120.034 101.378 120.385 101.147 120.687C100.917 120.989 100.618 121.233 100.277 121.399C99.7915 121.704 99.248 121.905 98.6809 121.99C98.1138 122.074 97.5354 122.039 96.9824 121.888C96.4864 121.648 96.008 121.373 95.5504 121.066" stroke="#313553" stroke-width="0.08244" stroke-linecap="round" stroke-linejoin="round"/>
<path id="Vector_39" d="M96.9824 121.888C96.0086 123.095 94.6773 123.961 93.18 124.363C92.8647 124.476 92.5286 124.52 92.1949 124.49C91.8612 124.461 91.5379 124.359 91.2472 124.193" stroke="#313553" stroke-width="0.08244" stroke-linecap="round" stroke-linejoin="round"/>
<path id="Vector_40" d="M86.952 88.4504C86.952 88.4504 88.1952 87.2184 88.1952 86.5176" stroke="#313553" stroke-width="0.08244" stroke-linecap="round" stroke-linejoin="round"/>
<path id="Vector_41" d="M81.4088 89.2312C81.5192 88.6535 81.5192 88.0601 81.4088 87.4824" stroke="#313553" stroke-width="0.08244" stroke-linecap="round" stroke-linejoin="round"/>
<path id="Vector_42" d="M69.6104 97.8241C69.6104 97.9145 69.632 98.0025 69.6736 98.0825C70.1712 99.0889 73.6608 98.7641 74.78 97.0873C75.9864 95.2753 74.5128 92.8665 74.5128 92.8665" stroke="#313553" stroke-width="0.08244" stroke-linecap="round" stroke-linejoin="round"/>
<path id="Vector_43" d="M70.3528 92.212C70.3528 92.212 71.2488 92.1432 72.4328 92.0056" stroke="#313553" stroke-width="0.08244" stroke-linecap="round" stroke-linejoin="round"/>
<path id="Vector_44" d="M109.251 114.855C110.07 114.614 110.822 114.186 111.448 113.606" stroke="#313553" stroke-width="0.08244" stroke-linecap="round" stroke-linejoin="round"/>
<path id="Vector_45" d="M106.54 114.437C106.54 114.437 105.572 114.885 105.553 114.855" stroke="#313553" stroke-width="0.08244" stroke-linecap="round" stroke-linejoin="round"/>
<path id="Vector_46" d="M57.944 109.28C58.5215 108.843 59.1658 108.502 59.852 108.271C60.0216 108.221 60.196 108.19 60.372 108.178C61.4472 108.117 63.484 107.902 64.848 109.954C65.4421 110.908 65.6835 112.04 65.5304 113.154C65.4668 113.585 65.2953 113.994 65.0319 114.342C64.7684 114.69 64.4215 114.966 64.0232 115.144C63.244 115.499 62.4208 115.749 61.576 115.886C59.6984 116.202 57.7456 116.032 56.888 115.188C55.448 113.766 53.8992 110.5 57.2624 107.05" stroke="#313553" stroke-width="0.08244" stroke-linecap="round" stroke-linejoin="round"/>
<path id="Vector_47" d="M71.84 112.56C71.2048 113.022 70.6768 113.415 70.3496 113.658" stroke="#313553" stroke-width="0.08244" stroke-linecap="round" stroke-linejoin="round"/>
<path id="Vector_48" d="M61.576 115.883C61.576 115.883 62.6296 120.013 64.8368 120.585C66.8611 121.238 68.983 121.535 71.1088 121.465C72.2269 121.381 73.3183 121.082 74.3232 120.585C74.3232 120.585 81.6592 116.665 82.7616 114.858C83.3358 114.026 83.6209 113.029 83.5728 112.02C83.5031 111.354 83.2183 110.728 82.7616 110.238C81.076 108.346 78.7912 108.253 76.6408 109.41C74.981 110.364 73.3798 111.417 71.8456 112.562" stroke="#313553" stroke-width="0.08244" stroke-linecap="round" stroke-linejoin="round"/>
<path id="Vector_49" d="M71.8456 112.562H71.8432L65.5848 113.161" stroke="#313553" stroke-width="0.08244" stroke-linecap="round" stroke-linejoin="round"/>
<path id="Vector_50" d="M76.7896 112.232C76.2684 112.848 75.9847 113.63 75.9896 114.437C76.0286 114.776 76.1503 115.101 76.3441 115.382C76.5379 115.664 76.7979 115.893 77.1011 116.051C77.4043 116.208 77.7416 116.289 78.0833 116.286C78.425 116.283 78.7606 116.195 79.0608 116.032C80.4824 115.246 82.7592 113.654 82.1328 112.232" stroke="#313553" stroke-width="0.08244" stroke-linecap="round" stroke-linejoin="round"/>
<path id="Vector_51" d="M77.7656 111.36C78.2622 110.919 78.8681 110.62 79.52 110.494C79.9785 110.474 80.4275 110.628 80.7768 110.926" stroke="#313553" stroke-width="0.08244" stroke-linecap="round" stroke-linejoin="round"/>
<path id="Vector_52" d="M90.9256 109.875C89.1216 108.85 87.1472 109.235 85.4424 110.568C83.5616 112.045 84.3864 111.173 83.5728 112.02C83.556 112.037 83.54 112.056 83.5208 112.075" stroke="#313553" stroke-width="0.08244" stroke-linecap="round" stroke-linejoin="round"/>
<path id="Vector_53" d="M71.112 121.503C71.5478 122.892 72.5141 124.052 73.8008 124.731C75.1512 125.366 76.0304 126.29 79.7864 124.726C81.6035 123.93 83.3639 123.01 85.0552 121.974C85.0552 121.974 90.9752 117.368 92.2392 115.221C92.3008 115.118 92.3544 115.011 92.3992 114.901C92.673 114.354 92.8222 113.753 92.8361 113.142C92.8499 112.53 92.728 111.923 92.4792 111.365C92.2665 110.969 91.9736 110.623 91.6192 110.347C91.4051 110.175 91.1768 110.02 90.9368 109.886" stroke="#313553" stroke-width="0.08244" stroke-linecap="round" stroke-linejoin="round"/>
<path id="Vector_54" d="M86.0664 113.323C85.6597 114.02 85.5145 114.839 85.6568 115.633C85.8013 116.128 86.1244 116.552 86.5634 116.823C87.0024 117.094 87.5262 117.192 88.0336 117.099C88.3696 117.038 88.6856 116.895 88.9536 116.683C90.224 115.666 92.1952 113.711 91.3376 112.416" stroke="#313553" stroke-width="0.08244" stroke-linecap="round" stroke-linejoin="round"/>
<path id="Vector_55" d="M86.88 112.295C87.2947 111.778 87.8406 111.381 88.4608 111.146C88.91 111.048 89.3794 111.124 89.7752 111.358" stroke="#313553" stroke-width="0.08244" stroke-linecap="round" stroke-linejoin="round"/>
<path id="Vector_56" d="M79.864 124.907C80.0176 125.425 80.2866 125.902 80.6509 126.301C81.0152 126.7 81.4653 127.011 81.9672 127.211C83.5864 127.973 85.5936 127.382 90.12 124.723C90.12 124.723 90.4136 124.52 90.8728 124.187C92.2554 123.206 93.5734 122.138 94.8184 120.987C95.1881 120.645 95.515 120.26 95.792 119.84C96.832 118.086 96.796 117 95.6488 116.087C95.2178 115.679 94.6873 115.392 94.1102 115.253C93.5332 115.115 92.9299 115.13 92.3608 115.298" stroke="#313553" stroke-width="0.08244" stroke-linecap="round" stroke-linejoin="round"/>
<path id="Vector_57" d="M91.1288 117.967C90.8144 118.506 90.7024 119.138 90.8128 119.752C90.8872 120.006 91.0226 120.238 91.2073 120.427C91.3919 120.616 91.6201 120.758 91.872 120.838C92.124 120.919 92.3919 120.936 92.6521 120.888C92.9123 120.841 93.1568 120.73 93.364 120.566C94.3456 119.779 95.872 118.267 95.204 117.263" stroke="#313553" stroke-width="0.08244" stroke-linecap="round" stroke-linejoin="round"/>
<path id="Vector_58" d="M91.76 117.17C92.0817 116.77 92.5053 116.463 92.9864 116.282C93.3333 116.206 93.6961 116.265 94.0008 116.447" stroke="#313553" stroke-width="0.08244" stroke-linecap="round" stroke-linejoin="round"/>
<path id="Vector_59" d="M88.1952 106.392L89.116 108.149L90.9256 109.875L90.936 109.884" stroke="#313553" stroke-width="0.08244" stroke-linecap="round" stroke-linejoin="round"/>
<path id="Vector_60" d="M64.0232 115.141C63.2243 114.775 62.4957 114.271 61.8704 113.654C61.4455 113.1 61.1512 112.458 61.0096 111.775C60.9795 111.621 60.9099 111.477 60.8074 111.358C60.7049 111.238 60.5731 111.148 60.425 111.095C60.2769 111.042 60.1176 111.028 59.9627 111.056C59.8078 111.083 59.6627 111.15 59.5416 111.25C59.1567 111.535 58.8872 111.949 58.7824 112.416C58.6608 112.953 58.7233 113.514 58.9597 114.011C59.196 114.508 59.5926 114.91 60.0856 115.154" stroke="#313553" stroke-width="0.08244" stroke-linecap="round" stroke-linejoin="round"/>
<path id="Vector_61" d="M87.5216 58.5625L59.6376 64.3065L59.1208 61.7937L50.732 21.0801L81.6728 14.7041L84.1864 14.1873L91.9728 51.9665" stroke="#313553" stroke-width="0.08244" stroke-linecap="round" stroke-linejoin="round"/>
<path id="Vector_62" d="M59.1208 61.7936L56.6048 62.3104L56.0856 59.7944L47.6992 19.084L78.6376 12.708L81.1536 12.1904L81.6728 14.704V14.7064" stroke="#313553" stroke-width="0.08244" stroke-linecap="round" stroke-linejoin="round"/>
<path id="Vector_63" d="M56.0856 59.7944L53.5696 60.3144L44.6632 17.0848L78.1208 10.192L78.6376 12.708" stroke="#313553" stroke-width="0.08244" stroke-linecap="round" stroke-linejoin="round"/>
<path id="Vector_64" d="M57.24 25.7352L80.0504 21.036" stroke="#313553" stroke-width="0.08244" stroke-linecap="round" stroke-linejoin="round"/>
<path id="Vector_65" d="M59.5328 30.5088L82.344 25.8064" stroke="#313553" stroke-width="0.08244" stroke-linecap="round" stroke-linejoin="round"/>
<path id="Vector_66" d="M57.5368 33.5416L82.8632 28.3224" stroke="#313553" stroke-width="0.08244" stroke-linecap="round" stroke-linejoin="round"/>
<path id="Vector_67" d="M58.0536 36.0568L83.38 30.8384" stroke="#313553" stroke-width="0.08244" stroke-linecap="round" stroke-linejoin="round"/>
<path id="Vector_68" d="M58.5736 38.5728L76.3528 34.908" stroke="#313553" stroke-width="0.08244" stroke-linecap="round" stroke-linejoin="round"/>
<path id="Vector_69" d="M61.6064 40.5696L84.4168 35.8704" stroke="#313553" stroke-width="0.08244" stroke-linecap="round" stroke-linejoin="round"/>
<path id="Vector_70" d="M59.6104 43.6025L84.9368 38.3865" stroke="#313553" stroke-width="0.08244" stroke-linecap="round" stroke-linejoin="round"/>
<path id="Vector_71" d="M60.1272 46.1176L85.4536 40.8992" stroke="#313553" stroke-width="0.08244" stroke-linecap="round" stroke-linejoin="round"/>
<path id="Vector_72" d="M63.16 48.1169L85.9736 43.4153" stroke="#313553" stroke-width="0.08244" stroke-linecap="round" stroke-linejoin="round"/>
<path id="Vector_73" d="M61.164 51.1496L86.4904 45.9312" stroke="#313553" stroke-width="0.08244" stroke-linecap="round" stroke-linejoin="round"/>
<path id="Vector_74" d="M61.6832 53.6657L87.0096 48.4473" stroke="#313553" stroke-width="0.08244" stroke-linecap="round" stroke-linejoin="round"/>
<path id="Vector_75" d="M69.7696 58.5544L72.352 58.024L75.42 57.3912L81.7936 56.0768L83.004 55.8264L85.036 55.4088" stroke="#313553" stroke-width="0.08244" stroke-linecap="round" stroke-linejoin="round"/>
<path id="Vector_76" d="M77.28 54.6744C77.2 54.9664 76.7048 56.8032 77.3872 56.8224C78.124 56.844 79.804 52.6072 79.804 52.6072C79.804 52.6072 78.9816 56.0472 79.9768 56.1184C80.972 56.1896 80.8272 53.6712 81.6904 53.4376C82.2976 53.272 81.7944 55.0704 81.7944 56.0776C81.7944 56.5096 81.888 56.7976 82.1992 56.7176C82.5864 56.6216 82.82 56.256 83.0048 55.8264C83.3072 55.1064 83.48 54.2096 84.0192 54.0752" stroke="#313553" stroke-width="0.08244" stroke-linecap="round" stroke-linejoin="round"/>
<path id="Vector_77" d="M74.08 55.9121C74.432 56.7673 74.96 57.4321 75.4048 57.3281C76.4168 57.0833 77.1704 54.9857 77.2776 54.6745C77.2796 54.6652 77.2823 54.6561 77.2856 54.6473V54.6393" stroke="#313553" stroke-width="0.08244" stroke-linecap="round" stroke-linejoin="round"/>
<path id="Vector_78" d="M74.08 55.912C74.896 54.372 75.3472 52.5656 74.3712 52.816C73.424 53.0608 73.5752 54.68 74.08 55.912Z" stroke="#313553" stroke-width="0.08244" stroke-linecap="round" stroke-linejoin="round"/>
<path id="Vector_79" d="M72.3328 57.9328C72.88 57.7848 73.556 56.9048 74.0816 55.912" stroke="#313553" stroke-width="0.08244" stroke-linecap="round" stroke-linejoin="round"/>
<path id="Vector_80" d="M68.192 55.5601L66.9272 57.4817L65.6624 59.4009" stroke="#313553" stroke-width="0.08244" stroke-linecap="round" stroke-linejoin="round"/>
<path id="Vector_81" d="M65.0048 56.2168L66.9272 57.4816L68.8464 58.744" stroke="#313553" stroke-width="0.08244" stroke-linecap="round" stroke-linejoin="round"/>
<path id="Vector_82" d="M87.5408 58.5544C88.0001 59.8587 88.6727 61.0776 89.5312 62.1616C91.2952 64.456 93.7679 66.1032 96.5648 66.8472L95.7896 71.5432C95.7252 71.9398 95.7793 72.3466 95.9451 72.7127C96.1109 73.0787 96.381 73.3876 96.7216 73.6008C97.0628 73.8136 97.4596 73.9202 97.8616 73.9071C98.2635 73.894 98.6525 73.7618 98.9792 73.5272C99.1962 73.3719 99.3806 73.1753 99.5215 72.9487C99.6625 72.722 99.7574 72.4698 99.8008 72.2064L100.585 67.452C101.754 67.4768 102.922 67.3482 104.058 67.0696C105.808 66.651 107.453 65.8786 108.894 64.8C110.317 63.7251 111.529 62.396 112.468 60.88C113.454 59.2897 114.11 57.518 114.4 55.6696C114.855 53.0424 114.612 50.3416 113.694 47.8392C112.775 45.3328 110.706 43.1312 107.488 41.2344L105.148 39.8184L106.786 29.8896C107.086 30.1152 107.361 30.372 107.606 30.6568C108.205 31.3776 108.543 32.2797 108.566 33.2168C108.587 33.5696 108.728 33.9045 108.966 34.1663C109.203 34.4281 109.523 34.6011 109.872 34.6568L115.566 35.5968C115.783 35.633 116.005 35.6232 116.218 35.5681C116.43 35.513 116.629 35.4139 116.801 35.277C116.973 35.1402 117.114 34.9688 117.216 34.7739C117.317 34.579 117.376 34.3649 117.39 34.1456C117.453 32.8919 117.349 31.6353 117.082 30.4088C116.722 28.7132 116.041 27.1023 115.074 25.6632C114.117 24.2556 112.871 23.0673 111.42 22.1768C110.443 21.5721 109.391 21.0986 108.291 20.7688L108.978 16.5976C109.044 16.2009 108.991 15.7935 108.825 15.4271C108.659 15.0608 108.388 14.752 108.046 14.54C107.762 14.3637 107.439 14.2601 107.106 14.2383C106.772 14.2166 106.438 14.2773 106.134 14.4153C105.829 14.5532 105.564 14.764 105.36 15.0292C105.156 15.2943 105.021 15.6055 104.966 15.9352L104.277 20.1168C103.169 20.0823 102.061 20.1792 100.977 20.4056C99.2802 20.7552 97.6758 21.4567 96.2672 22.4648C94.7922 23.4724 93.5352 24.7666 92.5712 26.2704C91.5588 27.8494 90.8867 29.622 90.5976 31.4752C90.0471 34.278 90.469 37.1846 91.7936 39.7152C93.2014 42.2335 95.2925 44.3024 97.8256 45.6832L99.8664 46.8416L98.0184 58.0416C97.2522 57.6982 96.6415 57.0815 96.3056 56.312C96.0231 55.6603 95.82 54.977 95.7008 54.2768C95.6162 53.7712 95.3759 53.3045 95.0136 52.9419C94.6512 52.5792 94.1847 52.3386 93.6792 52.2536L91.972 51.9728L89.5664 51.5728C89.0279 51.4845 88.4753 51.5776 87.9956 51.8375C87.5158 52.0974 87.136 52.5095 86.916 53.0088C86.7697 53.3399 86.6982 53.699 86.7064 54.0608C86.7286 55.5951 87.0107 57.1145 87.5408 58.5544Z" stroke="#313553" stroke-width="0.08244" stroke-linecap="round" stroke-linejoin="round"/>
<path id="Vector_83" d="M99.52 35.4136C99.2354 34.5804 99.159 33.6903 99.2976 32.8208C99.4802 31.6402 100.087 30.5666 101.005 29.8016C101.52 29.3576 102.146 29.0619 102.817 28.9464L101.401 37.5224C100.57 37.0321 99.9125 36.295 99.52 35.4136Z" stroke="#313553" stroke-width="0.08244" stroke-linecap="round" stroke-linejoin="round"/>
<path id="Vector_84" d="M103.494 57.82C103.049 58.0819 102.572 58.2852 102.075 58.4248L103.609 49.1368C104.273 49.635 104.823 50.2688 105.223 50.996C105.744 52.0557 105.905 53.2564 105.682 54.416C105.604 55.1137 105.366 55.7839 104.987 56.3743C104.607 56.9648 104.096 57.4595 103.494 57.82Z" stroke="#313553" stroke-width="0.08244" stroke-linecap="round" stroke-linejoin="round"/>
</g>
</g>
</svg>
