<svg width="160" height="160" viewBox="0 0 160 160" fill="none" xmlns="http://www.w3.org/2000/svg">
<g id="Cryptocurrency Wallet 1">
<path id="Vector" d="M68.5128 19.0072C68.2162 19.0165 67.9248 19.0879 67.6574 19.2166C67.3901 19.3454 67.1526 19.5287 66.9604 19.7548C66.7681 19.9809 66.6253 20.2447 66.5412 20.5293C66.4571 20.8139 66.4335 21.1129 66.472 21.4072C66.592 22.728 66.712 24.1688 66.712 25.4872C66.7218 25.71 66.7769 25.9285 66.874 26.1293C66.971 26.3301 67.108 26.509 67.2766 26.6551C67.4451 26.8012 67.6416 26.9113 67.8542 26.9789C68.0668 27.0465 68.2908 27.07 68.5128 27.048C72.1128 26.808 73.5528 25.4872 73.436 22.728C73.1952 19.8472 71.5144 19.0072 68.5128 19.0072Z" fill="#4267E9"/>
<path id="Vector_2" d="M68.9936 30.4128C68.559 30.4719 68.1608 30.6874 67.8735 31.0188C67.5863 31.3503 67.4296 31.775 67.4328 32.2136C67.5528 33.8936 67.6728 35.3336 67.7928 36.896C67.8177 37.151 67.8997 37.3971 68.0328 37.616C69.7217 35.3274 71.7442 33.3049 74.0328 31.616C73.1952 30.6528 71.5144 30.1728 68.9936 30.4128Z" fill="#4267E9"/>
<path id="Vector_3" d="M59.268 12.16C52.9048 14.56 47.8624 18.64 45.5808 24.1664C44.3543 28.7379 44.6495 33.5846 46.4216 37.9736C48.0551 42.1176 50.8985 45.6739 54.5816 48.1792C57.5235 47.4391 60.5547 47.116 63.5864 47.2192C63.998 45.6242 64.5196 44.0597 65.1472 42.5368L65.5072 41.8168L61.0648 42.4168C60.9597 42.4438 60.8495 42.445 60.7438 42.4204C60.638 42.3958 60.5398 42.3461 60.4574 42.2754C60.3749 42.2048 60.3108 42.1153 60.2703 42.0146C60.2298 41.9138 60.2142 41.8048 60.2248 41.6968C60.2248 41.336 60.4648 40.856 60.8248 40.856C61.5972 40.666 62.2809 40.2166 62.7615 39.5828C63.2421 38.949 63.4904 38.1693 63.4648 37.3744C63.3448 35.0928 62.384 23.9272 62.144 21.5256C62.0618 20.7054 61.6906 19.9412 61.0968 19.3696C60.5029 18.798 59.7251 18.4563 58.9024 18.4056C58.4224 18.4056 58.1824 18.0456 58.0616 17.5656C58.0501 17.3596 58.1186 17.1572 58.2527 17.0005C58.3869 16.8439 58.5764 16.7451 58.7816 16.7248L65.1448 16.6048H65.8648L65.7448 14.3232C65.6925 14.0458 65.6985 13.7606 65.7625 13.4856C65.8265 13.2107 65.947 12.9522 66.1164 12.7264C66.2858 12.5006 66.5004 12.3126 66.7464 12.1743C66.9925 12.036 67.2647 11.9505 67.5456 11.9232C68.6256 11.9232 69.4656 13.004 69.5864 14.3232L69.7064 16.6048C73.9088 16.8448 76.4304 19.1264 76.6664 22.3648C76.7372 23.2943 76.5639 24.2261 76.1637 25.0681C75.7635 25.91 75.1503 26.6328 74.3848 27.1648C74.2461 27.2689 74.1379 27.4084 74.0716 27.5687C74.0052 27.7289 73.9832 27.9041 74.0077 28.0758C74.0322 28.2475 74.1025 28.4094 74.211 28.5447C74.3196 28.68 74.4625 28.7836 74.6248 28.8448C75.4169 29.0983 76.1511 29.5061 76.7848 30.0448C77.8701 29.4528 78.9924 28.9315 80.1448 28.484C82.5991 27.6306 85.1333 27.0273 87.7088 26.6832C87.5888 26.0824 87.3488 25.4832 87.2288 25.0032C83.4008 13.724 70.9144 7.96075 59.268 12.16Z" fill="#4267E9"/>
<path id="Vector_4" d="M97.088 62.8303C100.928 62.8303 102.848 61.5095 103.088 58.8679C103.328 56.1063 101.648 54.5479 97.4456 54.3079C96.9843 54.2928 96.5357 54.4611 96.1982 54.776C95.8607 55.0909 95.6617 55.5267 95.6448 55.9879C95.524 57.6679 95.4048 59.3479 95.4048 60.9103C95.3643 61.1514 95.3779 61.3984 95.4447 61.6335C95.5115 61.8686 95.6297 62.086 95.7908 62.2697C95.9519 62.4535 96.1519 62.5992 96.3763 62.6961C96.6006 62.7931 96.8437 62.8389 97.088 62.8303Z" fill="#4267E9"/>
<path id="Vector_5" d="M97.4488 50.7039C101.289 50.9439 102.969 49.8631 103.091 46.9815C103.331 43.9799 101.771 42.7791 98.5312 42.4215C98.2228 42.3929 97.9119 42.4265 97.6167 42.5203C97.3216 42.6141 97.0483 42.7663 96.8132 42.9677C96.578 43.1692 96.3856 43.4159 96.2476 43.6931C96.1096 43.9703 96.0286 44.2724 96.0096 44.5815C95.8896 46.0215 95.7696 47.4615 95.7696 48.7831C95.7504 49.0202 95.779 49.2587 95.8536 49.4845C95.9281 49.7104 96.0472 49.919 96.2037 50.098C96.3602 50.2771 96.5511 50.4229 96.7649 50.527C96.9788 50.6311 97.2113 50.6912 97.4488 50.7039Z" fill="#4267E9"/>
<path id="Vector_6" d="M114.978 47.1016C110.898 35.936 98.4088 30.1728 86.7632 34.3752C83.6253 35.5177 80.769 37.32 78.387 39.6604C76.005 42.0009 74.1527 44.8251 72.9552 47.9424C72.9732 48.1115 72.9306 48.2816 72.8352 48.4224C74.5702 48.8014 76.2598 49.3645 77.8752 50.1024C83.3287 52.5937 87.6839 56.9919 90.1216 62.4696C90.4949 61.9875 90.705 61.3991 90.7216 60.7896C90.8416 58.3896 91.5624 46.7424 91.6816 44.2208C91.7263 43.3585 91.4603 42.5087 90.9318 41.8258C90.4034 41.1429 89.6476 40.6722 88.8016 40.4992C88.5859 40.453 88.3942 40.3304 88.2619 40.154C88.1296 39.9775 88.0655 39.7591 88.0816 39.5392C88.0854 39.4241 88.115 39.3113 88.1682 39.2092C88.2214 39.107 88.2969 39.0182 88.389 38.9491C88.4811 38.88 88.5876 38.8324 88.7005 38.8099C88.8135 38.7875 88.93 38.7906 89.0416 38.8192L96.4816 39.7792L96.6016 37.4984C96.7216 36.1776 97.6824 35.0984 98.7616 35.3384C99.8416 35.4592 100.682 36.7784 100.562 38.1L100.442 40.3816C104.762 41.2216 107.046 43.9816 106.806 47.3416C106.756 48.331 106.44 49.2887 105.891 50.1132C105.342 50.9377 104.58 51.5982 103.686 52.0248C103.522 52.1117 103.386 52.2414 103.29 52.4C103.195 52.5586 103.145 52.7402 103.145 52.9252C103.145 53.1102 103.195 53.2917 103.29 53.4503C103.386 53.6089 103.522 53.7386 103.686 53.8256C106.206 55.1464 107.167 57.0672 107.046 59.3456C106.806 62.348 104.406 65.4696 98.7616 65.8296L98.6408 68.3504C98.5208 69.5504 97.6808 70.632 96.6 70.632C96.3245 70.6198 96.0548 70.5485 95.8093 70.4227C95.5638 70.297 95.3482 70.1199 95.1774 69.9034C95.0065 69.6868 94.8843 69.4361 94.819 69.1681C94.7537 68.9001 94.747 68.6212 94.7992 68.3504L94.9192 65.8296H91.3192C92.0573 68.2375 92.3818 70.7531 92.2792 73.2696C98.3044 71.8847 104.395 70.8029 110.529 70.028C115.938 63.5504 117.859 54.9056 114.978 47.1016Z" fill="#4267E9"/>
<path id="Vector_7" d="M68.5128 65.472C66.712 63.1904 64.7912 63.312 62.1496 65.1112C61.8984 65.2895 61.6877 65.5188 61.5315 65.7843C61.3752 66.0497 61.2768 66.3452 61.2428 66.6513C61.2088 66.9575 61.24 67.2673 61.3342 67.5606C61.4284 67.8538 61.5836 68.1238 61.7896 68.3528C62.6304 69.4336 63.5904 70.6344 64.4296 71.7128C64.7257 72.0815 65.1508 72.3238 65.6189 72.3906C66.087 72.4575 66.563 72.3439 66.9504 72.0728C69.8336 69.6736 70.3144 67.7528 68.5128 65.472Z" fill="#4267E9"/>
<path id="Vector_8" d="M76.4376 74.24C74.7576 72.08 72.4752 71.9592 69.2376 74.6008C68.8839 74.9112 68.662 75.345 68.6174 75.8136C68.5728 76.2821 68.7088 76.75 68.9976 77.1216C69.3576 77.6016 69.7176 77.9624 70.0776 78.4424C72.4776 77.8424 74.8776 77.1216 77.4016 76.5224C77.2908 75.6889 76.9578 74.9006 76.4376 74.24Z" fill="#4267E9"/>
<path id="Vector_9" d="M87.6 67.7528C83.52 56.5872 71.0344 50.824 59.388 55.0264C47.5016 59.3464 41.2584 72.4352 45.3408 84.0816C45.5808 84.4416 45.7008 84.9224 45.9408 85.2816C50.9808 83.8416 57.8272 81.8 65.2712 79.7616C64.7912 79.2816 59.7512 72.8016 58.188 70.8768C57.617 70.2285 56.8433 69.7925 55.9929 69.64C55.1425 69.4875 54.2655 69.6273 53.5048 70.0368C53.3096 70.1488 53.0804 70.1863 52.8597 70.1421C52.6391 70.098 52.4419 69.9753 52.3048 69.7968C52.2266 69.7135 52.1671 69.6144 52.1304 69.5062C52.0936 69.398 52.0805 69.2832 52.0919 69.1695C52.1033 69.0558 52.1389 68.9459 52.1963 68.8471C52.2537 68.7483 52.3316 68.663 52.4248 68.5968L58.548 64.2768L57.108 62.476C56.2672 61.3952 56.2672 59.9544 57.228 59.356C57.7597 59.0842 58.3735 59.0197 58.95 59.1751C59.5266 59.3305 60.0249 59.6946 60.348 60.1968L61.788 61.9976C65.628 59.7168 69.112 60.1968 71.1528 62.9576C71.7596 63.7258 72.1561 64.6386 72.3035 65.6064C72.4509 66.5741 72.3441 67.5636 71.9936 68.4776C71.9297 68.6502 71.9144 68.8371 71.9495 69.0178C71.9846 69.1985 72.0686 69.3661 72.1924 69.5023C72.3162 69.6385 72.4751 69.7381 72.6517 69.7902C72.8282 69.8422 73.0157 69.8448 73.1936 69.7976C74.294 69.4333 75.4789 69.4104 76.5926 69.732C77.7063 70.0535 78.6967 70.7044 79.4336 71.5992C80.3117 72.7311 80.7776 74.1285 80.7544 75.5608C83.3944 74.8408 86.0344 74.24 88.6784 73.6408C88.671 71.6297 88.3059 69.636 87.6 67.7528Z" fill="#4267E9"/>
<path id="Vector_10" d="M137.19 126.945L134.07 114.098C135.164 113.692 136.122 112.984 136.831 112.057C137.179 111.554 137.422 110.987 137.546 110.389C137.669 109.791 137.671 109.173 137.551 108.574L133.109 90.3248C132.748 88.764 130.949 87.4448 127.706 87.804L124.703 75.44C123.023 68.5968 122.303 68.48 115.338 69.2H114.978C116.839 67.0765 118.375 64.6893 119.538 62.116C122.189 56.1097 122.405 49.3084 120.138 43.1464C119.029 40.1026 117.321 37.3123 115.114 34.9406C112.907 32.569 110.247 30.6642 107.291 29.3392C105.185 28.409 102.965 27.7633 100.688 27.4192C97.8184 26.7316 94.8736 26.4091 91.9232 26.4592C91.7845 24.3266 91.3397 22.225 90.6024 20.2192C89.5242 17.2898 87.8767 14.603 85.7549 12.3135C83.6331 10.0241 81.079 8.17739 78.24 6.87997C76.2169 5.95145 74.0758 5.3054 71.8768 4.95997C65.4347 3.41046 58.6831 3.74366 52.4248 5.91997C46.0079 8.32663 40.7914 13.155 37.8968 19.3672C36.5258 22.3261 35.7659 25.5312 35.6627 28.7907C35.5594 32.0502 36.115 35.297 37.296 38.3368C39.216 43.1368 43.18 47.3416 48.4624 50.2232C42.9194 53.002 38.4773 57.5712 35.856 63.1904C34.9271 65.2133 34.2811 67.3545 33.936 69.5536C23.9696 73.04 21.328 78.8 22.288 83.12L37.4168 146.154C37.8605 147.785 38.6325 149.307 39.6854 150.628C40.7383 151.95 42.05 153.042 43.54 153.838C46.3527 155.311 49.4902 156.055 52.6648 156C56.1537 155.971 59.6096 155.321 62.8704 154.08C78.4784 148.677 111.856 140.633 127.825 138.471C132.987 137.751 135.505 136.791 136.71 134.99C138.51 132.948 137.91 130.066 137.19 126.945ZM135.75 109.055C135.821 109.41 135.816 109.776 135.733 110.128C135.65 110.48 135.492 110.81 135.27 111.096L134.91 111.456C134.005 112.262 132.872 112.765 131.668 112.896C131.307 112.896 130.948 113.016 130.587 113.016C125.134 113.94 119.757 115.264 114.498 116.978C113.298 117.458 113.058 117.338 112.938 117.338C112.561 116.962 108.618 100.126 108.618 100.05C110.145 98.5224 123.77 95.8584 125.787 95.4896L127.588 95.1288C128.059 95.0001 128.541 94.9196 129.028 94.8888C129.688 94.7611 130.332 94.5599 130.948 94.2888C131.393 94.0789 131.799 93.7945 132.148 93.448L135.75 109.055ZM39.5776 20.2072C40.8582 17.3247 42.7102 14.732 45.0215 12.5858C47.3328 10.4396 50.0555 8.78456 53.0248 7.72077C55.3847 6.8515 57.8459 6.28694 60.3488 6.04077C60.1088 6.16077 59.9888 6.16077 59.7488 6.28077C53.332 8.68773 48.1157 13.516 45.2208 19.728C43.8497 22.687 43.0897 25.8923 42.9865 29.1519C42.8833 32.4116 43.4388 35.6585 44.62 38.6984C46.1876 42.7457 48.848 46.2785 52.3048 48.9032C51.7718 49.0687 51.2504 49.2694 50.744 49.504C45.224 46.7424 41.0184 42.544 39.0976 37.8576C37.9849 35.0348 37.4538 32.0164 37.5363 28.9834C37.6188 25.9504 38.3131 22.9653 39.5776 20.2072ZM112.218 69.4336C111.738 69.4336 111.137 69.5536 110.657 69.5536C105.254 70.2736 99.0104 71.3552 92.4064 72.7952C92.4498 70.2804 92.1264 67.7727 91.4464 65.3512C91.3264 64.8712 91.0856 64.2712 90.9664 63.7912C90.7146 63.292 90.5136 62.7689 90.3664 62.2296C87.9285 56.7517 83.5726 52.3536 78.1184 49.8632C76.4963 49.1425 74.8085 48.5799 73.0784 48.1832C73.0604 48.014 73.103 47.844 73.1984 47.7032C73.5565 46.1323 74.0799 44.6038 74.76 43.1432C76.1078 40.1336 78.0454 37.4248 80.4582 35.1769C82.8709 32.929 85.7099 31.1877 88.8072 30.056C91.4225 29.104 94.1841 28.6167 96.9672 28.616C101.665 28.5667 106.263 29.9708 110.132 32.6359C114.001 35.3011 116.951 39.0971 118.579 43.504C120.122 47.9804 120.343 52.8067 119.214 57.4052C118.086 62.0037 115.657 66.1797 112.217 69.4336H112.218ZM88.9248 73.7536C86.2848 74.3536 83.6448 74.9536 81.0008 75.6736C79.8008 75.9136 78.6008 76.2744 77.5184 76.5144C74.9976 77.1144 72.596 77.8352 70.1952 78.4344C68.6344 78.9144 67.0752 79.2752 65.512 79.7552C58.072 81.7968 51.2248 83.8352 46.1816 85.2752C45.9416 84.9152 45.8216 84.4344 45.5816 84.0752L44.8616 82.6352C43.719 79.6945 43.1731 76.5559 43.2555 73.4021C43.3379 70.2484 44.047 67.1425 45.3416 64.2656C46.6902 61.2572 48.628 58.5497 51.0405 56.3028C53.4531 54.056 56.2915 52.3154 59.388 51.184C62.0048 50.2315 64.7681 49.7441 67.5528 49.744C72.2504 49.6947 76.8484 51.0989 80.7172 53.764C84.5859 56.4292 87.5362 60.2251 89.164 64.632C90.1664 67.4434 90.6542 70.4124 90.604 73.3968C90.0048 73.52 89.404 73.636 88.924 73.76L88.9248 73.7536ZM88.08 28.612C84.7441 29.8171 81.6852 31.6821 79.086 34.0956C76.4868 36.509 74.4006 39.4216 72.952 42.6592C72.191 44.4026 71.5883 46.211 71.1512 48.0624C69.3022 47.5979 67.4121 47.3162 65.508 47.2216C65.881 45.8261 66.3624 44.462 66.948 43.1416C68.2961 40.132 70.2338 37.4232 72.6467 35.1754C75.0596 32.9275 77.8986 31.1862 80.996 30.0544C83.6185 29.0757 86.3652 28.4695 89.156 28.2536L88.08 28.612ZM87.96 26.692C85.3845 27.0362 82.8503 27.6395 80.396 28.4928C79.2435 28.9399 78.1211 29.4613 77.036 30.0536C76.024 30.5663 75.0601 31.169 74.156 31.8544C71.8399 33.5111 69.8127 35.5383 68.156 37.8544C67.2422 39.1441 66.4393 40.509 65.756 41.9344L65.3952 42.6544C64.7146 44.1571 64.1916 45.7263 63.8344 47.3368C60.8051 47.2933 57.7817 47.6157 54.8296 48.2968C51.0571 45.8895 48.1878 42.3009 46.6696 38.0912C44.957 33.6889 44.6631 28.8615 45.8288 24.284C46.1427 23.0021 46.5852 21.7553 47.1496 20.5624C48.4299 17.6816 50.2809 15.0902 52.5908 12.9448C54.9007 10.7994 57.6214 9.14443 60.5888 8.07997C66.0506 6.00357 72.1129 6.17735 77.4469 8.56322C82.7808 10.9491 86.9512 15.3524 89.044 20.808C89.7295 22.6572 90.134 24.5988 90.244 26.568C89.4821 26.4855 88.7118 26.5271 87.9632 26.6912L87.96 26.692ZM59.8688 49.1432L58.788 49.5032C55.4519 50.708 52.3929 52.5728 49.7936 54.9863C47.1944 57.3999 45.1083 60.3126 43.66 63.5504C42.2294 66.6415 41.4387 69.99 41.3355 73.3946C41.2322 76.7991 41.8186 80.1894 43.0592 83.3616C43.4103 84.2243 43.811 85.0659 44.2592 85.8824C42.8192 86.2424 41.6192 86.6024 40.5376 86.9632C40.2976 87.0832 40.0576 87.0832 39.8176 87.2032C38.6966 85.7696 37.7682 84.1954 37.056 82.5208C35.9137 79.5801 35.3678 76.4415 35.4502 73.2877C35.5326 70.134 36.2416 67.0282 37.536 64.1512C38.8839 61.1415 40.8216 58.4326 43.2345 56.1848C45.6474 53.9369 48.4865 52.1956 51.584 51.064C54.2347 50.0151 57.027 49.3677 59.8688 49.1432ZM33.8144 71.5952C33.6944 73.1537 33.6944 74.7191 33.8144 76.2776C31.8696 77.135 30.1454 78.4237 28.7725 80.0462C27.3997 81.6688 26.4141 83.5825 25.8904 85.6424C25.0496 84.8 21.568 75.5568 33.8144 71.5952ZM135.629 133.908C134.789 135.229 132.387 136.068 127.949 136.67C111.98 138.83 78.3624 146.995 62.6344 152.398C55.6744 154.798 49.3072 154.798 44.624 152.278C41.8632 150.717 39.9416 148.438 39.344 145.798L25.2904 87.5632C25.5304 88.404 28.1704 89.0032 28.772 89.2432C30.4154 89.6793 32.1121 89.8815 33.812 89.844C36.2224 89.8266 38.6143 89.4214 40.896 88.644C42.336 88.284 44.1376 87.684 46.0584 87.0832C61.7872 82.5232 94.4448 72.916 113.418 71.1144C115.338 70.8744 119.178 69.7936 120.982 70.9944C121.702 71.4744 122.182 72.7952 122.902 75.7944L127.105 93.3232C120.861 94.5232 114.618 95.4832 108.734 97.8832C106.694 98.724 106.454 99.204 106.934 101.483L110.534 116.371C110.584 116.869 110.738 117.35 110.986 117.784C111.235 118.218 111.571 118.596 111.974 118.892C112.319 119.029 112.684 119.11 113.054 119.132C114.615 119.132 116.174 118.292 117.737 117.811C119.417 117.331 121.097 116.851 122.777 116.491C125.778 115.771 128.9 115.051 132.022 114.571H132.382L135.502 127.298C136.23 130.666 136.47 132.708 135.629 133.908Z" fill="#191919"/>
<path id="Vector_11" d="M124.703 104.853C124.566 104.263 124.301 103.711 123.928 103.234C123.555 102.757 123.082 102.367 122.543 102.091C121.395 101.482 120.063 101.317 118.801 101.627C117.539 101.937 116.436 102.7 115.7 103.771C115.348 104.247 115.111 104.798 115.007 105.381C114.902 105.964 114.934 106.563 115.099 107.131C115.7 109.653 118.582 110.971 120.982 110.374C123.262 109.775 125.303 107.374 124.703 104.853Z" fill="#191919"/>
<path id="Vector_12" d="M118.58 89.6048C118.652 89.822 118.803 90.0042 119.003 90.1153C119.203 90.2264 119.438 90.2584 119.66 90.2048C119.772 90.1751 119.876 90.1233 119.967 90.0523C120.058 89.9814 120.134 89.8929 120.19 89.792C120.246 89.6911 120.281 89.58 120.293 89.4652C120.306 89.3505 120.294 89.2344 120.261 89.124C119.722 85.9266 118.753 82.8168 117.381 79.8792C116.781 78.7984 115.221 79.7592 115.82 80.8392C117.152 83.6151 118.081 86.5667 118.58 89.6048Z" fill="#191919"/>
<path id="Vector_13" d="M109.215 77.12C105.253 77.36 101.53 78.56 97.6888 79.52C96.608 79.76 97.088 81.5608 98.1688 81.2C101.769 80.24 105.493 79.04 109.215 78.8C109.342 78.8018 109.467 78.7782 109.585 78.7307C109.702 78.6831 109.809 78.6124 109.898 78.5229C109.988 78.4334 110.058 78.3268 110.106 78.2095C110.153 78.0922 110.177 77.9666 110.175 77.84C110.105 77.6379 109.976 77.4614 109.805 77.3331C109.634 77.2048 109.429 77.1306 109.215 77.12Z" fill="#191919"/>
<path id="Vector_14" d="M77.52 87.3232C81.36 86.2424 85.084 85.1632 88.9264 84.0816C90.0072 83.7216 89.5264 82.0408 88.4464 82.4016C84.724 83.4824 80.8824 84.5616 77.04 85.6432C75.9568 85.8824 76.4376 87.5632 77.52 87.3232Z" fill="#191919"/>
<path id="Vector_15" d="M55.9064 93.8064C59.5064 92.6064 63.1104 91.6464 66.712 90.5648C67.7928 90.2048 67.3128 88.524 66.232 88.8848C62.632 89.9656 59.028 90.9264 55.4264 92.1264C55.3098 92.1522 55.1998 92.2016 55.1031 92.2715C55.0063 92.3414 54.9249 92.4304 54.8638 92.533C54.8027 92.6355 54.7633 92.7495 54.7479 92.8679C54.7325 92.9862 54.7414 93.1065 54.7742 93.2213C54.807 93.3361 54.8629 93.4429 54.9386 93.5353C55.0142 93.6277 55.1079 93.7036 55.2139 93.7584C55.32 93.8132 55.4361 93.8457 55.5552 93.854C55.6743 93.8622 55.7938 93.846 55.9064 93.8064Z" fill="#191919"/>
<path id="Vector_16" d="M44.62 95.0072C42.6901 95.4721 40.7205 95.7536 38.7376 95.848C36.6043 95.9875 34.4619 95.8259 32.3736 95.368C31.2936 95.128 30.8128 96.808 31.8936 97.048C34.574 97.6291 37.3284 97.7911 40.0584 97.528C41.7559 97.3651 43.44 97.0842 45.0984 96.6872C46.3016 96.568 45.8208 94.7672 44.62 95.0072Z" fill="#191919"/>
<path id="Vector_17" d="M126.984 120.581C127.337 121.925 127.618 123.287 127.825 124.661C127.98 126.97 127.316 127.586 126.984 127.902C126.215 128.384 125.358 128.71 124.463 128.862C123.202 129.167 121.917 129.368 120.623 129.462C120.369 129.462 120.124 129.564 119.944 129.744C119.764 129.924 119.663 130.168 119.663 130.422C119.663 130.677 119.764 130.921 119.944 131.101C120.124 131.281 120.369 131.382 120.623 131.382C122.905 131.142 125.306 130.902 127.347 129.942C129.148 128.982 129.747 127.302 129.747 125.382C129.671 123.587 129.348 121.81 128.787 120.102C128.545 119.02 126.744 119.501 126.984 120.581Z" fill="#191919"/>
<path id="Vector_18" d="M111.016 130.786C107.508 131.171 104.022 131.731 100.57 132.466C100.353 132.538 100.171 132.69 100.059 132.89C99.9481 133.09 99.9161 133.325 99.9696 133.547C99.9994 133.659 100.051 133.763 100.122 133.854C100.193 133.945 100.282 134.021 100.383 134.077C100.484 134.133 100.595 134.168 100.709 134.18C100.824 134.192 100.94 134.181 101.05 134.147C104.343 133.452 107.669 132.931 111.016 132.586C111.143 132.588 111.268 132.565 111.386 132.517C111.503 132.469 111.609 132.399 111.699 132.309C111.788 132.22 111.859 132.113 111.907 131.996C111.954 131.879 111.978 131.753 111.976 131.626C111.953 131.39 111.841 131.172 111.663 131.016C111.484 130.86 111.253 130.778 111.016 130.786Z" fill="#191919"/>
<path id="Vector_19" d="M91.2056 134.749C88.0856 135.589 84.8416 136.55 81.72 137.51C80.64 137.87 81.12 139.551 82.2 139.19C85.32 138.23 88.44 137.27 91.6848 136.429C92.7664 136.19 92.2856 134.389 91.2056 134.749Z" fill="#191919"/>
<path id="Vector_20" d="M72.1152 140.512C68.4488 141.709 64.7214 142.711 60.9488 143.514C60.7316 143.586 60.5494 143.737 60.4383 143.937C60.3272 144.137 60.2952 144.371 60.3488 144.594C60.3785 144.705 60.4304 144.81 60.5013 144.901C60.5722 144.992 60.6607 145.067 60.7616 145.123C60.8625 145.18 60.9736 145.215 61.0884 145.227C61.2032 145.239 61.3192 145.228 61.4296 145.194C65.2083 144.419 68.9369 143.416 72.5952 142.193C72.7178 142.173 72.8348 142.127 72.9385 142.059C73.0422 141.99 73.1302 141.901 73.1968 141.796C73.2634 141.691 73.307 141.573 73.3248 141.45C73.3426 141.327 73.3341 141.202 73.3 141.083C73.2659 140.963 73.2069 140.852 73.1269 140.757C73.0468 140.662 72.9476 140.585 72.8357 140.531C72.7238 140.477 72.6017 140.448 72.4775 140.445C72.3533 140.441 72.2298 140.464 72.1152 140.512Z" fill="#191919"/>
<path id="Vector_21" d="M51.224 144.474C49.5653 144.839 47.8442 144.812 46.1977 144.396C44.5511 143.979 43.0245 143.184 41.7392 142.074C41.564 141.898 41.3265 141.8 41.0788 141.8C40.8311 141.8 40.5935 141.898 40.4184 142.074C40.2432 142.249 40.1449 142.486 40.1449 142.734C40.1449 142.982 40.2432 143.219 40.4184 143.394C41.9287 144.729 43.7407 145.677 45.6984 146.156C47.6764 146.576 49.7204 146.576 51.6984 146.156C51.9157 146.084 52.0979 145.933 52.2092 145.733C52.3204 145.532 52.3526 145.298 52.2992 145.075C52.3048 144.594 51.704 144.354 51.224 144.474Z" fill="#191919"/>
</g>
</svg>
